<svg width="155" height="169" viewBox="0 0 155 169" fill="none" xmlns="http://www.w3.org/2000/svg">
<g clip-path="url(#clip0_230_528)">
<path d="M90.9807 55.1509C90.1507 55.2252 89.2769 55.5635 88.5409 56.3406C88.41 56.4789 88.3393 56.6635 88.3445 56.8538C88.3497 57.0442 88.4302 57.2248 88.5684 57.3557C88.7065 57.4867 88.8911 57.5573 89.0814 57.5522C89.2717 57.5471 89.4521 57.4667 89.5831 57.3285C90.2664 56.6069 90.8872 56.5072 91.6386 56.5866C92.39 56.666 93.2109 57.0042 93.9991 57.2356C94.5288 57.3913 95.1628 57.4099 95.9588 57.4046C96.7548 57.3985 97.683 57.3487 98.64 57.2779C100.554 57.1364 102.585 56.912 103.805 56.7917C103.899 56.7824 103.99 56.7549 104.073 56.7104C104.157 56.666 104.23 56.6055 104.29 56.5326C104.35 56.4596 104.395 56.3757 104.422 56.2854C104.449 56.1952 104.459 56.1004 104.449 56.0065C104.44 55.9127 104.413 55.8216 104.368 55.7384C104.324 55.6552 104.263 55.5816 104.19 55.5218C104.118 55.4619 104.034 55.417 103.943 55.3896C103.853 55.3623 103.758 55.353 103.665 55.3623C102.425 55.4844 100.411 55.707 98.5341 55.8458C97.5956 55.9152 96.6918 55.9633 95.9493 55.9683C95.2068 55.9729 94.596 55.914 94.4039 55.8577C93.7471 55.6648 92.8306 55.2683 91.7898 55.1585C91.5296 55.1309 91.2576 55.1261 90.981 55.1508L90.9807 55.1509Z" fill="black"/>
<path d="M91.7019 56.9289C91.5181 56.8795 91.3222 56.9051 91.1573 57.0002C91.1573 57.0002 90.5184 57.3663 89.8603 57.9383C89.2022 58.5103 88.4306 59.2895 88.3459 60.3855C88.3313 60.5753 88.3926 60.7632 88.5164 60.9078C88.6403 61.0524 88.8164 61.142 89.0062 61.1567C89.1002 61.164 89.1947 61.1527 89.2843 61.1234C89.374 61.0942 89.457 61.0476 89.5286 60.9863C89.6002 60.9249 89.6591 60.85 89.7018 60.7659C89.7445 60.6819 89.7702 60.5902 89.7775 60.4962C89.8064 60.1224 90.2615 59.4921 90.8019 59.0224C91.3424 58.5528 91.8738 58.2446 91.8738 58.2446C91.9555 58.1976 92.0271 58.1349 92.0846 58.0601C92.142 57.9854 92.1842 57.9 92.2087 57.8089C92.2332 57.7178 92.2395 57.6229 92.2272 57.5294C92.215 57.4358 92.1845 57.3456 92.1374 57.2639C92.0424 57.0989 91.8857 56.9784 91.7019 56.9289Z" fill="black"/>
<path d="M94.0875 57.5133C92.6014 57.6006 90.4643 58.6463 88.9485 61.8616C88.9082 61.9469 88.8852 62.0394 88.8807 62.1336C88.8762 62.2278 88.8903 62.3218 88.9221 62.4106C88.954 62.4993 89.003 62.5811 89.0664 62.6509C89.1298 62.7207 89.2064 62.7773 89.2916 62.8175C89.3769 62.8578 89.4693 62.8808 89.5634 62.8853C89.6576 62.8898 89.7518 62.8757 89.8405 62.8438C89.9292 62.812 90.0108 62.763 90.0806 62.6996C90.1504 62.6362 90.207 62.5595 90.2472 62.4742C91.7865 59.209 93.8114 58.8685 94.4999 58.956C94.5934 58.9679 94.6884 58.9613 94.7793 58.9365C94.8703 58.9117 94.9554 58.8692 95.03 58.8115C95.1045 58.7537 95.1669 58.6818 95.2137 58.5999C95.2605 58.518 95.2907 58.4278 95.3025 58.3343C95.3144 58.2407 95.3077 58.1457 95.2829 58.0547C95.2581 57.9638 95.2156 57.8785 95.1578 57.8039C95.1001 57.7294 95.0282 57.6669 94.9463 57.6202C94.8645 57.5734 94.7742 57.5432 94.6807 57.5314C94.4987 57.5082 94.2998 57.5009 94.0875 57.5133Z" fill="black"/>
<path d="M89.0962 62.724C88.906 62.7149 88.7201 62.7817 88.5792 62.9098C88.4383 63.0379 88.3541 63.2168 88.3451 63.407C88.336 63.5972 88.4028 63.7832 88.5309 63.9242C88.6589 64.0651 88.8377 64.1493 89.0279 64.1584L105.581 64.9462C105.771 64.9552 105.957 64.8883 106.098 64.7602C106.239 64.6321 106.323 64.4534 106.332 64.2632C106.336 64.1689 106.322 64.0748 106.29 63.986C106.258 63.8973 106.209 63.8156 106.146 63.7458C106.083 63.6761 106.006 63.6194 105.921 63.5792C105.835 63.5391 105.743 63.5162 105.649 63.5118L89.0962 62.724Z" fill="black"/>
<mask id="mask0_230_528" style="mask-type:luminance" maskUnits="userSpaceOnUse" x="-211" y="-1707" width="377" height="1989">
<path d="M165.028 281.857L165.028 -1706.97H-210.668L-210.668 281.857H165.028Z" fill="white"/>
</mask>
<g mask="url(#mask0_230_528)">
<path fill-rule="evenodd" clip-rule="evenodd" d="M60.4006 146.112L2.53271 145.036L4.43215 108.171L9.57914 108.398L11.0893 75.487L26.6514 75.6385L27.9601 45.3188L90.8963 45.94L89.4482 76.2295L90.8963 76.2446L90.6282 91.3667L60.4006 146.112ZM90.3949 104.61L90.2662 111.959L94.2014 112.14L93.3728 146.718L67.7031 146.248L90.3949 104.61Z" fill="#FD7E14"/>
</g>
<path d="M108.151 58.5993C108.061 58.6254 107.976 58.6691 107.903 58.7279C107.829 58.7867 107.767 58.8595 107.722 58.942L55.4596 153.568C55.4073 153.663 55.3771 153.768 55.3712 153.876C55.3653 153.984 55.3839 154.092 55.4256 154.192C55.4673 154.292 55.531 154.381 55.612 154.453C55.693 154.525 55.7892 154.577 55.8933 154.607C58.3978 155.312 60.9478 155.525 63.5045 154.949C63.604 154.927 63.6977 154.883 63.7792 154.822C63.8606 154.76 63.9281 154.682 63.9769 154.592L109.677 70.7244C109.722 70.6416 109.751 70.5508 109.761 70.457C109.771 70.3632 109.762 70.2683 109.735 70.1778C109.709 70.0873 109.665 70.003 109.605 69.9296C109.546 69.8563 109.473 69.7953 109.39 69.7502C109.308 69.705 109.217 69.6765 109.123 69.6666C109.029 69.6566 108.934 69.6652 108.844 69.6919C108.754 69.7185 108.669 69.7628 108.596 69.8221C108.523 69.8813 108.462 69.9544 108.416 70.0372L62.8859 153.594C60.995 153.97 59.0985 153.87 57.1764 153.43L108.978 59.6366C109.07 59.4699 109.092 59.2735 109.04 59.0906C108.987 58.9076 108.864 58.753 108.697 58.6609C108.531 58.5687 108.334 58.5467 108.151 58.5993Z" fill="black"/>
<path d="M141.042 72.5763C140.933 72.5261 140.812 72.5044 140.692 72.5131C140.571 72.5219 140.455 72.5608 140.354 72.6263C140.088 72.7984 139.766 72.9712 139.377 73.1185C139.374 73.12 139.37 73.1215 139.366 73.1231C132.402 75.8962 120.524 75.7039 108.923 72.5818C108.828 72.5563 108.729 72.5505 108.632 72.5648C108.535 72.579 108.442 72.6131 108.359 72.6648C108.275 72.7165 108.203 72.7847 108.147 72.8653C108.091 72.9459 108.052 73.0372 108.033 73.1334C108.033 73.1334 97.7786 123.969 96.5921 154.524C96.5725 155.045 96.9093 155.366 97.1977 155.57C97.4862 155.775 97.8218 155.925 98.2145 156.069C99 156.355 100.012 156.591 101.105 156.773C103.285 157.136 105.692 157.31 107.193 156.948C107.433 156.893 107.522 156.785 107.58 156.722C107.638 156.658 107.664 156.615 107.687 156.576C107.733 156.499 107.757 156.442 107.783 156.379C107.834 156.253 107.882 156.11 107.939 155.929C108.051 155.567 108.191 155.062 108.36 154.418C108.697 153.13 109.147 151.289 109.685 149.027C110.763 144.503 112.195 138.299 113.771 131.526C116.684 119.008 120.056 104.766 122.617 95.4247C123.252 97.5336 126.652 108.839 130.765 122.458C133.005 129.875 135.266 137.349 137.01 143.08C137.882 145.946 138.625 148.376 139.171 150.147C139.717 151.918 140.033 152.942 140.165 153.291C140.454 154.053 141.22 154.424 141.996 154.549C142.772 154.674 143.668 154.617 144.653 154.464C146.623 154.157 148.937 153.441 150.926 152.678C151.275 152.546 151.619 152.263 151.801 151.902C151.983 151.541 152.038 151.151 152.051 150.695C152.076 149.783 151.918 148.545 151.671 146.626C151.166 142.721 141.454 73.1305 141.454 73.1305C141.438 73.0109 141.391 72.8975 141.319 72.8008C141.247 72.704 141.152 72.6269 141.042 72.5767L141.042 72.5763ZM109.3 74.1469C120.872 77.1399 132.552 77.3782 139.889 74.46C139.991 74.4212 140.077 74.3759 140.173 74.3342C140.432 76.1922 149.771 143.13 150.247 146.81C150.494 148.724 150.635 149.964 150.616 150.654C150.606 151 150.552 151.192 150.52 151.255C150.488 151.318 150.513 151.299 150.42 151.334C150.419 151.334 150.417 151.335 150.416 151.335C148.496 152.072 146.233 152.764 144.432 153.044C143.532 153.185 142.745 153.215 142.224 153.131C141.703 153.048 141.558 152.914 141.507 152.781C141.47 152.684 141.088 151.491 140.543 149.723C139.998 147.956 139.256 145.526 138.384 142.662C136.641 136.932 134.38 129.46 132.14 122.043C127.66 107.209 123.265 92.5989 123.265 92.5989C123.22 92.4504 123.129 92.3204 123.004 92.2283C122.879 92.1362 122.728 92.087 122.573 92.088C122.418 92.089 122.268 92.1401 122.144 92.2339C122.02 92.3276 121.931 92.4589 121.888 92.608C119.255 101.827 115.526 117.65 112.373 131.199C110.797 137.974 109.365 144.179 108.289 148.694C107.751 150.951 107.302 152.787 106.971 154.054C106.805 154.688 106.668 155.181 106.568 155.501C106.555 155.544 106.549 155.553 106.537 155.59C105.419 155.761 103.236 155.672 101.34 155.356C100.307 155.184 99.3519 154.954 98.7068 154.719C98.3885 154.603 98.1495 154.481 98.0364 154.402C99.2182 124.744 108.875 76.2671 109.3 74.1461L109.3 74.1469ZM98.0266 154.578C98.0267 154.578 98.0266 154.578 98.0266 154.576V154.578Z" fill="black"/>
<mask id="mask1_230_528" style="mask-type:luminance" maskUnits="userSpaceOnUse" x="-211" y="-1707" width="377" height="1989">
<path d="M165.028 281.857L165.028 -1706.97H-210.668L-210.668 281.857H165.028Z" fill="white"/>
</mask>
<g mask="url(#mask1_230_528)">
<path fill-rule="evenodd" clip-rule="evenodd" d="M108.737 73.2749C120.447 76.4266 132.403 76.6691 139.632 73.7902C140.072 73.6235 140.44 73.4265 140.744 73.2295C140.744 73.2295 150.465 142.9 150.959 146.718C151.453 150.552 151.559 151.673 150.673 152.006C146.764 153.506 141.515 154.825 140.836 153.037C140.158 151.249 122.578 92.8063 122.578 92.8063C117.334 111.171 107.655 156.112 107.034 156.249C104.547 156.855 97.2658 155.719 97.3098 154.552C98.4912 124.126 108.737 73.2749 108.737 73.2749Z" fill="black"/>
</g>
<mask id="mask2_230_528" style="mask-type:luminance" maskUnits="userSpaceOnUse" x="-211" y="-1707" width="377" height="1989">
<path d="M165.028 281.857L165.028 -1706.97H-210.668L-210.668 281.857H165.028Z" fill="white"/>
</mask>
<g mask="url(#mask2_230_528)">
<path fill-rule="evenodd" clip-rule="evenodd" d="M103.959 48.9403C104.889 46.3492 108.811 32.0758 118.979 31.106L117.949 33.1819L119.794 33.0606C119.73 33.7576 119.656 34.4547 119.58 35.1517C119.58 35.1517 120.459 34.3183 121.672 33.1819L124.373 35.4092L131.672 29.6816C133.549 30.0604 139.858 32.9091 141.407 37.6366C144.181 46.1219 141.204 56.9557 140.862 62.0772C140.706 64.4107 140.579 67.2291 141.527 69.1686C142.107 70.3505 142.964 72.4718 139.632 73.79C132.392 76.669 120.409 76.4265 108.682 73.2597C107.693 73.0021 107.968 67.623 110.101 60.4408C115.039 63.6531 121.224 67.2291 124.559 67.4261C128.768 67.6837 132.025 66.032 134.227 64.5168C136.952 67.123 137.133 66.1683 137.019 65.8653C136.693 65.0319 136.228 64.2137 135.675 63.4258C133.043 59.7438 128.406 56.9407 127.09 56.1831C126.507 56.6225 126.148 57.5467 124.158 56.9861C117.953 55.2133 105.881 50.7889 104.194 49.1676C104.115 49.0918 104.036 49.0161 103.959 48.9403Z" fill="#FD7E14"/>
</g>
<path d="M41.2794 0.0291146C41.2771 0.0291922 41.2749 0.0292802 41.2726 0.0293793C40.4519 0.0919182 39.5113 0.139852 38.721 0.805181C37.9306 1.47066 37.5243 2.60714 37.4722 4.3891C37.4231 6.06186 37.2137 12.7735 37.0264 19.2083C36.9327 22.4258 36.8445 25.5746 36.7847 27.9922C36.7548 29.201 36.7319 30.2267 36.719 30.9888C36.7061 31.7508 36.6964 32.1805 36.7146 32.4447C36.7643 33.1601 37.0347 33.9803 37.6373 34.6695C38.2394 35.3581 39.1968 35.88 40.457 35.92C41.1345 35.9454 43.9213 35.8971 47.94 35.8195C51.9597 35.7421 57.1142 35.6308 62.2008 35.5172C72.2415 35.2929 81.7611 35.0647 82.0139 35.0587C83.1365 36.07 84.4915 36.7946 86.1338 36.5974C86.2875 36.5789 86.4331 36.5115 86.549 36.4053C86.6649 36.299 86.745 36.1595 86.7774 36.0074C86.8098 35.8553 86.7927 35.6987 86.7288 35.5608C86.6649 35.4229 86.5575 35.311 86.4225 35.2417C86.4225 35.2417 85.7391 34.863 85.1879 33.8855C85.6883 33.5561 86.138 32.8543 86.1616 31.8671C86.2094 29.8406 85.5725 5.31303 85.4498 3.52423C85.3951 2.7354 85.1932 1.90421 84.5439 1.2958C83.8947 0.687392 82.9125 0.374296 81.492 0.300314C80.7536 0.261916 78.0583 0.223579 74.2971 0.183086C70.5359 0.142443 65.7551 0.102939 61.0067 0.070699C56.2584 0.038611 51.5429 0.0137648 47.9113 0.00429236C46.0955 -0.000519306 44.5507 -0.00161317 43.4074 0.00195766C42.2641 0.00537697 41.5797 0.00864982 41.2794 0.0288172L41.2794 0.0291146ZM41.322 1.46293C41.4305 1.45568 42.219 1.44321 43.3559 1.43943C44.4943 1.4359 46.0373 1.43707 47.8515 1.4418C51.48 1.45139 56.1945 1.47568 60.9413 1.50783C65.6881 1.53998 70.4676 1.57999 74.2258 1.62045C77.9841 1.66105 80.7675 1.70485 81.3621 1.73581C82.606 1.8006 83.2279 2.06919 83.5413 2.36277C83.8546 2.6565 83.9738 3.04742 84.0176 3.67924C84.0918 4.76262 84.7573 30.5796 84.7264 31.8897C84.7109 32.538 84.5436 32.6296 84.4326 32.6996C84.3216 32.7695 84.2338 32.7703 84.2338 32.7703C84.1147 32.7662 83.9952 32.7918 83.8863 32.8451C83.7774 32.8984 83.6824 32.9776 83.61 33.0754C83.5376 33.1733 83.49 33.2868 83.4716 33.4056C83.4532 33.5244 83.4645 33.6448 83.5046 33.7558C83.6323 34.1093 83.7899 34.4123 83.9554 34.6924C83.5639 34.462 83.1795 34.1792 82.7937 33.8077C82.6617 33.6807 82.4834 33.6121 82.2967 33.6166C82.2967 33.6166 72.396 33.854 62.2244 34.0812C57.1386 34.1948 51.985 34.3059 47.9681 34.3834C43.9512 34.4609 40.9747 34.5003 40.5652 34.4847C40.5636 34.4848 40.5619 34.4848 40.5602 34.4849C39.6501 34.4568 39.1081 34.1289 38.7337 33.7007C38.3595 33.2727 38.1762 32.7093 38.1471 32.2914C38.1456 32.268 38.1416 31.7133 38.1545 30.9585C38.1674 30.2033 38.19 29.18 38.2199 27.9732C38.2796 25.5597 38.3677 22.4123 38.4613 19.1959C38.6485 12.7633 38.8578 6.05651 38.9071 4.37678C38.9535 2.79111 39.2874 2.17115 39.6198 1.89139C39.9515 1.61211 40.5155 1.52564 41.3221 1.46411L41.322 1.46293Z" fill="black"/>
<path d="M41.2241 28.2445C41.1298 28.2458 41.036 28.2657 40.948 28.3029C40.86 28.3402 40.7795 28.3941 40.7112 28.4617C40.6428 28.5294 40.5879 28.6094 40.5497 28.6971C40.5114 28.7848 40.4904 28.8784 40.488 28.9728C40.4856 29.0672 40.5018 29.1603 40.5356 29.247C40.5695 29.3338 40.6203 29.4123 40.6853 29.4781C40.7502 29.544 40.828 29.5959 40.9141 29.6308C41.0003 29.6658 41.0931 29.6832 41.1874 29.6819L66.1121 29.3486C66.2063 29.3473 66.3001 29.3273 66.3881 29.29C66.476 29.2527 66.5565 29.1987 66.6248 29.1311C66.6931 29.0634 66.748 28.9836 66.7863 28.8959C66.8245 28.8082 66.8454 28.7146 66.8478 28.6202C66.8526 28.4297 66.7817 28.248 66.6506 28.1151C66.5195 27.9822 66.339 27.9089 66.1487 27.9114L41.2241 28.2445Z" fill="black"/>
<path d="M63.936 6.8149C63.7458 6.8153 63.5606 6.89138 63.4211 7.02641C63.2816 7.16144 63.1993 7.34429 63.1923 7.53486L62.4106 28.6725C62.4036 28.8631 62.4724 29.0457 62.602 29.1802C62.7315 29.3147 62.9112 29.39 63.1014 29.3897C63.1957 29.3895 63.2896 29.3708 63.378 29.3345C63.4664 29.2982 63.5475 29.2452 63.6166 29.1783C63.6857 29.1114 63.7415 29.0322 63.7807 28.9449C63.82 28.8576 63.842 28.7641 63.8455 28.6697L64.6268 7.53232C64.6303 7.43794 64.6152 7.34448 64.5824 7.25734C64.5496 7.17021 64.4997 7.09114 64.4355 7.02453C64.3714 6.95791 64.2942 6.90507 64.2085 6.86911C64.1228 6.83315 64.0302 6.81472 63.936 6.8149Z" fill="black"/>
<path d="M68.6869 5.2519C68.5928 5.25038 68.4985 5.26747 68.4096 5.30219C68.3206 5.33691 68.2387 5.38855 68.1685 5.45422C68.0983 5.51989 68.0411 5.59832 68.0003 5.68494C67.9596 5.77156 67.9359 5.86465 67.9308 5.95902C67.9204 6.14956 67.9859 6.33343 68.113 6.47028C68.24 6.60713 68.4182 6.68578 68.6082 6.6888L81.2924 6.89254C81.3866 6.89406 81.4808 6.87697 81.5698 6.84224C81.6587 6.80752 81.7407 6.75589 81.8109 6.69022C81.8811 6.62455 81.9382 6.54612 81.979 6.4595C82.0198 6.37288 82.0435 6.27979 82.0486 6.18541C82.0538 6.09105 82.0404 5.99727 82.0091 5.9095C81.9779 5.82174 81.9294 5.74165 81.8665 5.67386C81.8036 5.60607 81.7275 5.55198 81.6425 5.51448C81.5575 5.47698 81.4653 5.45684 81.3711 5.45534L68.6869 5.2519Z" fill="black"/>
<path d="M68.6869 8.41205C68.4969 8.40899 68.3104 8.48181 68.1686 8.61437C68.0268 8.74693 67.9413 8.92834 67.9308 9.11889C67.9203 9.30942 67.9858 9.49339 68.1128 9.6303C68.2398 9.7672 68.4179 9.84587 68.608 9.84897L76.9445 9.98482C77.0386 9.98637 77.1329 9.96935 77.2218 9.93466C77.3108 9.89998 77.3927 9.84828 77.463 9.78264C77.5332 9.71699 77.5904 9.63867 77.6313 9.55206C77.6721 9.46546 77.6958 9.37235 77.7009 9.27797C77.7061 9.1836 77.6927 9.08982 77.6614 9.00206C77.6302 8.9143 77.5817 8.83421 77.5188 8.76641C77.4559 8.69862 77.3798 8.64454 77.2948 8.60704C77.2098 8.56954 77.1176 8.54939 77.0235 8.5479L68.6869 8.41205Z" fill="black"/>
<path d="M68.6873 11.5715C68.5931 11.5699 68.4989 11.5869 68.4099 11.6216C68.3209 11.6563 68.239 11.7079 68.1687 11.7735C68.0985 11.8392 68.0413 11.9176 68.0005 12.0042C67.9597 12.0908 67.936 12.184 67.9308 12.2783C67.9256 12.3727 67.939 12.4665 67.9702 12.5542C68.0014 12.642 68.0498 12.7221 68.1127 12.7899C68.1756 12.8577 68.2517 12.9119 68.3367 12.9494C68.4216 12.987 68.5138 13.0072 68.608 13.0087L75.4747 13.1215C75.6648 13.1246 75.8513 13.0518 75.9931 12.9192C76.1349 12.7867 76.2204 12.6052 76.2309 12.4147C76.2415 12.2242 76.1761 12.0401 76.0491 11.9031C75.9222 11.7662 75.7441 11.6875 75.554 11.6843L68.6873 11.5715Z" fill="black"/>
<path d="M68.6869 14.7319C68.4969 14.7288 68.3104 14.8016 68.1686 14.9342C68.0268 15.0668 67.9412 15.2482 67.9308 15.4387C67.9256 15.5331 67.939 15.6269 67.9703 15.7146C68.0015 15.8024 68.05 15.8825 68.1129 15.9503C68.1758 16.0181 68.2519 16.0723 68.3369 16.1098C68.4219 16.1473 68.5141 16.1673 68.6082 16.1688L78.8568 16.3344C78.9509 16.336 79.0452 16.3189 79.1341 16.2843C79.2231 16.2496 79.305 16.1979 79.3753 16.1322C79.4455 16.0666 79.5027 15.9882 79.5435 15.9017C79.5843 15.8151 79.6081 15.7219 79.6133 15.6276C79.6185 15.5332 79.6051 15.4394 79.5738 15.3517C79.5426 15.2639 79.4941 15.1838 79.4312 15.116C79.3683 15.0482 79.2921 14.994 79.2071 14.9565C79.1221 14.919 79.0299 14.899 78.9358 14.8975L68.6869 14.7319Z" fill="black"/>
<path d="M68.6873 17.8913C68.5931 17.8897 68.4989 17.9068 68.4099 17.9415C68.3209 17.9761 68.239 18.0277 68.1687 18.0933C68.0985 18.159 68.0413 18.2375 68.0005 18.3241C67.9597 18.4107 67.936 18.5038 67.9308 18.5982C67.9256 18.6925 67.939 18.7863 67.9702 18.8741C68.0014 18.9618 68.0498 19.0419 68.1127 19.1097C68.1756 19.1775 68.2517 19.2319 68.3367 19.2694C68.4216 19.3069 68.5138 19.327 68.608 19.3285L75.4747 19.4414C75.6648 19.4444 75.8513 19.3716 75.9931 19.239C76.1349 19.1065 76.2204 18.9251 76.2309 18.7345C76.2415 18.544 76.1761 18.3599 76.0491 18.223C75.9222 18.086 75.7441 18.0073 75.554 18.0041L68.6873 17.8913Z" fill="black"/>
<path d="M68.6873 21.0512C68.5931 21.0497 68.4989 21.0667 68.4099 21.1014C68.3209 21.1361 68.239 21.1878 68.1687 21.2534C68.0985 21.319 68.0413 21.3974 68.0005 21.484C67.9597 21.5706 67.936 21.6637 67.9308 21.7581C67.9256 21.8524 67.939 21.9462 67.9702 22.034C68.0014 22.1218 68.0498 22.202 68.1127 22.2698C68.1756 22.3376 68.2517 22.3918 68.3367 22.4293C68.4216 22.4668 68.5138 22.4869 68.608 22.4884L75.4747 22.6014C75.6648 22.6045 75.8513 22.5317 75.9931 22.3991C76.1349 22.2665 76.2204 22.085 76.2309 21.8944C76.2415 21.7039 76.1761 21.52 76.0491 21.383C75.9222 21.246 75.7441 21.1672 75.554 21.164L68.6873 21.0512Z" fill="black"/>
<path d="M68.6877 24.2119C68.4977 24.2087 68.3112 24.2814 68.1693 24.4139C68.0275 24.5464 67.9418 24.7279 67.9313 24.9184C67.9261 25.0128 67.9394 25.1065 67.9707 25.1943C68.0019 25.2821 68.0503 25.3622 68.1132 25.43C68.1761 25.4978 68.2522 25.5521 68.3372 25.5897C68.4221 25.6272 68.5143 25.6473 68.6085 25.6488L74.9504 25.7536C75.0445 25.7552 75.1388 25.738 75.2277 25.7033C75.3167 25.6687 75.3986 25.6171 75.4689 25.5515C75.5391 25.4858 75.5963 25.4075 75.6371 25.3209C75.678 25.2343 75.7017 25.1411 75.7069 25.0468C75.7121 24.9524 75.6987 24.8586 75.6675 24.7709C75.6363 24.6831 75.5879 24.603 75.525 24.5352C75.4621 24.4674 75.386 24.4132 75.301 24.3757C75.216 24.3382 75.1238 24.3179 75.0297 24.3164L68.6877 24.2119Z" fill="black"/>
<path d="M117.582 13.0953C116.879 13.1059 116.216 13.4171 115.652 13.9147C115.581 13.9771 115.523 14.0527 115.482 14.1374C115.44 14.2221 115.416 14.3142 115.41 14.4084C115.404 14.5025 115.417 14.5969 115.447 14.6861C115.478 14.7753 115.526 14.8576 115.588 14.9283C115.65 14.9991 115.726 15.0569 115.811 15.0983C115.895 15.1398 115.987 15.1643 116.082 15.1703C116.176 15.1762 116.27 15.1635 116.359 15.133C116.448 15.1024 116.531 15.0546 116.601 14.9923C116.982 14.6566 117.296 14.5362 117.604 14.5315C117.911 14.5269 118.27 14.6435 118.72 14.9914C118.871 15.1078 119.062 15.1596 119.251 15.1353C119.439 15.1111 119.611 15.013 119.727 14.8623C119.785 14.7877 119.827 14.7024 119.852 14.6114C119.877 14.5204 119.883 14.4254 119.871 14.3319C119.859 14.2383 119.829 14.1481 119.782 14.0662C119.735 13.9844 119.673 13.9126 119.598 13.8549C118.97 13.3695 118.285 13.0847 117.582 13.0953Z" fill="black"/>
<path d="M117.427 10.2063C116.91 10.188 116.411 10.1895 115.932 10.2063C114.017 10.278 112.424 10.6104 111.234 11.0008C110.639 11.1958 110.146 11.4051 109.756 11.6101C109.365 11.8151 109.088 11.9821 108.852 12.2597C108.728 12.4047 108.668 12.5928 108.683 12.7826C108.698 12.9725 108.788 13.1484 108.933 13.2718C109.078 13.3953 109.266 13.456 109.456 13.4408C109.646 13.4256 109.822 13.3357 109.945 13.1907C109.928 13.2107 110.119 13.041 110.423 12.8818C110.726 12.7224 111.153 12.539 111.682 12.3655C112.74 12.0185 114.207 11.708 115.986 11.6415C119.543 11.5083 124.344 12.3384 129.723 15.7847C129.803 15.8355 129.891 15.8702 129.984 15.8868C130.077 15.9034 130.172 15.9015 130.264 15.8813C130.356 15.8611 130.444 15.8231 130.521 15.7691C130.598 15.7152 130.664 15.6466 130.715 15.5672C130.766 15.4877 130.801 15.399 130.817 15.3061C130.834 15.2133 130.832 15.1182 130.812 15.026C130.792 14.9339 130.753 14.8467 130.7 14.7693C130.646 14.6919 130.577 14.6259 130.498 14.575C125.581 11.4255 121.049 10.333 117.427 10.2053V10.2063Z" fill="black"/>
<path d="M110.616 11.2537C110.426 11.2715 110.251 11.3639 110.13 11.5105C110.009 11.6572 109.95 11.846 109.968 12.0355C109.968 12.0355 110.241 14.9689 110.905 18.2296C111.237 19.86 111.665 21.5748 112.218 23.0715C112.77 24.5678 113.417 25.8571 114.375 26.6448C115.909 27.9079 117.88 28.05 119.545 27.4323C121.21 26.8147 122.629 25.4545 123.191 23.6528C123.248 23.471 123.23 23.2741 123.142 23.1054C123.054 22.9368 122.902 22.8102 122.72 22.7534C122.538 22.6967 122.342 22.7144 122.173 22.8028C122.004 22.8913 121.878 23.0432 121.821 23.225C121.405 24.5596 120.311 25.6163 119.046 26.0857C117.78 26.5553 116.403 26.455 115.287 25.5362C114.715 25.066 114.077 23.9615 113.565 22.5747C113.053 21.1876 112.635 19.5293 112.313 17.9436C111.667 14.7722 111.398 11.9022 111.398 11.9022C111.389 11.8083 111.362 11.717 111.318 11.6336C111.274 11.5503 111.214 11.4765 111.141 11.4163C111.069 11.3561 110.985 11.3108 110.895 11.283C110.805 11.2551 110.71 11.2453 110.616 11.2541L110.616 11.2537Z" fill="black"/>
<path d="M114.133 15.1617C114.039 15.1546 113.944 15.1662 113.855 15.1956C113.765 15.225 113.682 15.2719 113.611 15.3334C113.539 15.3949 113.48 15.4698 113.438 15.554C113.395 15.6382 113.37 15.7298 113.363 15.8239C113.356 15.9179 113.367 16.0125 113.397 16.1021C113.426 16.1917 113.473 16.2746 113.535 16.3461C113.543 16.3567 113.677 16.5671 113.792 16.8406C113.907 17.1139 114.027 17.4627 114.126 17.8282C114.326 18.5593 114.42 19.394 114.358 19.7547C114.254 20.3554 114.647 20.8419 115.069 21.0752C115.491 21.3084 116.022 21.3775 116.56 21.216C116.65 21.1889 116.735 21.1444 116.808 21.0849C116.881 21.0253 116.941 20.9518 116.986 20.8688C117.031 20.7858 117.059 20.6948 117.068 20.601C117.078 20.5072 117.069 20.4124 117.042 20.3221C116.987 20.1397 116.862 19.9864 116.695 19.8961C116.527 19.8058 116.33 19.7857 116.148 19.8404C115.992 19.8872 115.858 19.8578 115.787 19.8252C115.877 19.0644 115.726 18.2342 115.512 17.4491C115.396 17.0268 115.26 16.6271 115.116 16.283C114.971 15.9389 114.843 15.6634 114.623 15.4081C114.499 15.2638 114.323 15.1748 114.133 15.1605L114.133 15.1617ZM115.772 19.9989C115.772 19.9989 115.772 19.9989 115.772 19.9989C115.772 19.9989 115.772 19.9988 115.772 19.9973V19.9989Z" fill="black"/>
<path d="M120.059 21.2367C119.964 21.2413 119.872 21.2644 119.787 21.3048C119.702 21.3451 119.625 21.4018 119.562 21.4717C118.802 22.311 118.127 22.5095 117.631 22.551C117.134 22.5925 116.874 22.4743 116.874 22.4743C116.788 22.4376 116.694 22.4183 116.6 22.4177C116.506 22.417 116.412 22.4347 116.325 22.4702C116.238 22.5056 116.158 22.558 116.091 22.6242C116.024 22.6904 115.97 22.7692 115.934 22.8561C115.897 22.943 115.878 23.0363 115.877 23.1306C115.876 23.2249 115.894 23.3184 115.93 23.4058C115.965 23.4932 116.017 23.5727 116.084 23.6399C116.15 23.7071 116.228 23.7605 116.315 23.7972C116.315 23.7972 116.933 24.0503 117.75 23.9822C118.567 23.9138 119.643 23.5214 120.626 22.4361C120.753 22.295 120.82 22.1089 120.811 21.9187C120.801 21.7285 120.717 21.5498 120.576 21.422C120.435 21.294 120.249 21.2274 120.059 21.2367Z" fill="black"/>
<path d="M119.893 10.5064C119.71 10.5596 119.556 10.6833 119.465 10.8501C119.373 11.017 119.351 11.2135 119.405 11.3963C119.405 11.3963 120.398 14.9808 123.625 16.5256C123.789 16.6041 123.977 16.6175 124.151 16.5627C124.324 16.508 124.471 16.3894 124.56 16.2308C124.56 16.2308 124.811 15.7994 125.161 15.4572C125.335 15.2862 125.528 15.1523 125.67 15.0989C125.812 15.0452 125.873 15.0406 126.001 15.102C126.093 15.1457 126.203 15.2569 126.287 15.5077C126.371 15.7585 126.404 16.1237 126.351 16.5154C126.244 17.2989 125.804 18.151 125.049 18.6151C124.887 18.7148 124.771 18.8749 124.727 19.0601C124.683 19.2452 124.714 19.4404 124.814 19.6027C124.863 19.683 124.928 19.7528 125.004 19.8082C125.08 19.8635 125.167 19.9033 125.259 19.9252C125.35 19.9471 125.445 19.9508 125.538 19.9359C125.632 19.921 125.721 19.8879 125.801 19.8385C126.993 19.1056 127.615 17.8665 127.773 16.7104C127.852 16.1325 127.82 15.5659 127.649 15.0534C127.478 14.541 127.147 14.0576 126.619 13.8057C126.128 13.5715 125.583 13.5975 125.164 13.7554C124.745 13.9135 124.421 14.1726 124.156 14.4314C123.98 14.6042 123.867 14.7639 123.742 14.9262C121.6 13.5823 120.783 10.9959 120.783 10.9959C120.757 10.9053 120.713 10.8207 120.654 10.7472C120.595 10.6736 120.522 10.6123 120.439 10.5669C120.357 10.5215 120.266 10.4929 120.172 10.4826C120.079 10.4723 119.984 10.4805 119.893 10.5068V10.5064Z" fill="black"/>
<path d="M119.812 25.7854C119.623 25.8045 119.449 25.8982 119.328 26.0457C119.208 26.1932 119.151 26.3825 119.17 26.572C119.77 32.4961 117.811 38.4398 118.444 45.5641C118.452 45.6581 118.479 45.7494 118.523 45.833C118.566 45.9166 118.626 45.9908 118.698 46.0513C118.771 46.1118 118.854 46.1576 118.944 46.1858C119.034 46.214 119.129 46.2242 119.223 46.2158C119.412 46.1989 119.587 46.1075 119.71 45.9615C119.832 45.8154 119.891 45.6269 119.874 45.4372C119.271 38.6517 121.238 32.7462 120.599 26.4273C120.579 26.2379 120.486 26.0638 120.338 25.9434C120.191 25.8231 120.002 25.7662 119.812 25.7854Z" fill="black"/>
<path d="M119.779 28.3644C119.69 28.3944 119.607 28.4416 119.536 28.5035C119.465 28.5654 119.407 28.6407 119.365 28.7252L117.306 32.8616C117.25 32.9746 117.224 33.1006 117.232 33.2266C117.24 33.3527 117.281 33.4744 117.351 33.5795C117.421 33.6847 117.518 33.7695 117.631 33.8254C117.744 33.8814 117.87 33.9065 117.996 33.8982L119.841 33.7769C120.031 33.7644 120.208 33.677 120.333 33.5338C120.459 33.3906 120.522 33.2034 120.51 33.0134C120.497 32.8234 120.41 32.646 120.267 32.5205C120.124 32.3949 119.937 32.3315 119.747 32.344L119.148 32.3833L120.65 29.3653C120.692 29.2809 120.717 29.189 120.723 29.0949C120.73 29.0008 120.718 28.9063 120.688 28.8169C120.658 28.7275 120.611 28.6448 120.549 28.5736C120.487 28.5025 120.411 28.4443 120.327 28.4023C120.157 28.3175 119.96 28.3039 119.779 28.3644Z" fill="black"/>
<path d="M128.687 26.3595C128.353 26.3864 128.283 26.4782 128.146 26.5605C128.01 26.6429 127.867 26.7428 127.704 26.8635C127.38 27.1052 126.982 27.4298 126.528 27.8153C125.621 28.5864 124.495 29.5975 123.393 30.6063C122.239 31.6635 121.948 31.9509 121.136 32.7152C121.13 32.7182 121.124 32.7211 121.118 32.7242C121.117 32.7278 121.116 32.7313 121.115 32.7349C120.39 33.4175 119.085 34.6316 119.085 34.6316C119.017 34.6967 118.962 34.7745 118.924 34.8608C118.886 34.947 118.865 35.04 118.863 35.1342C118.86 35.2285 118.877 35.3224 118.911 35.4104C118.945 35.4983 118.996 35.5787 119.061 35.647C119.192 35.7848 119.373 35.8647 119.563 35.8692C119.753 35.8738 119.938 35.8026 120.075 35.6712C120.075 35.6712 121.211 34.615 121.71 34.1439L123.916 35.963C124.042 36.067 124.2 36.1248 124.364 36.1267C124.527 36.1286 124.687 36.0747 124.815 35.9737L132.397 30.0341C132.477 29.9715 132.542 29.8926 132.589 29.8027C132.637 29.7127 132.664 29.6137 132.67 29.5124C132.677 29.411 132.661 29.3095 132.625 29.2145C132.589 29.1195 132.533 29.0332 132.462 28.9613C132.462 28.9613 131.834 28.3322 131.101 27.7036C130.734 27.3893 130.341 27.0736 129.961 26.8233C129.581 26.5731 129.29 26.3106 128.687 26.3588L128.687 26.3595ZM128.805 27.8478C128.89 27.88 129.029 27.9304 129.171 28.0236C129.464 28.2167 129.826 28.5035 130.167 28.7951C130.529 29.1058 130.61 29.1975 130.848 29.424L124.384 34.4882L122.768 33.1556C123.454 32.5137 123.549 32.4114 124.363 31.6658C125.458 30.6632 126.576 29.6592 127.457 28.9103C127.898 28.5357 128.281 28.2241 128.561 28.0159C128.666 27.9379 128.736 27.8924 128.805 27.8478Z" fill="black"/>
<path d="M125.64 18.2776C125.453 18.3114 125.287 18.4184 125.178 18.5748C125.07 18.7313 125.028 18.9244 125.062 19.1118C125.062 19.1118 125.461 21.3268 126.1 23.5252C126.126 23.6158 126.17 23.7002 126.229 23.7738C126.288 23.8474 126.361 23.9087 126.444 23.954C126.527 23.9994 126.617 24.0281 126.711 24.0384C126.805 24.0487 126.9 24.0405 126.99 24.0141C127.173 23.9609 127.327 23.8373 127.419 23.6704C127.51 23.5035 127.532 23.3071 127.479 23.1242C126.867 21.0208 126.474 18.8564 126.474 18.8564C126.44 18.6691 126.334 18.5027 126.177 18.3942C126.021 18.2856 125.828 18.2437 125.64 18.2776ZM127.904 25.0905C127.816 25.0568 127.722 25.0408 127.628 25.0434C127.533 25.046 127.441 25.0671 127.355 25.1056C127.181 25.1831 127.045 25.3266 126.977 25.5043C126.908 25.6821 126.914 25.8798 126.991 26.0538C127.284 26.7109 127.589 27.2723 128.029 27.6883C128.167 27.8191 128.352 27.8897 128.542 27.8843C128.732 27.879 128.913 27.7982 129.043 27.6598C129.174 27.5215 129.245 27.3367 129.239 27.1464C129.234 26.956 129.153 26.7756 129.015 26.6448C128.841 26.4802 128.558 26.0417 128.303 25.469C128.264 25.3828 128.209 25.3051 128.141 25.2402C128.072 25.1753 127.992 25.1245 127.904 25.0908V25.0905Z" fill="black"/>
<path d="M120.077 0.331622C119.71 0.314651 119.347 0.318032 118.988 0.342276C111.3 0.874575 109.147 8.59702 109.147 8.59702C109.096 8.78069 109.121 8.97674 109.215 9.14215C109.31 9.30755 109.466 9.42866 109.649 9.47893C109.74 9.50383 109.835 9.51057 109.929 9.49876C110.022 9.48694 110.113 9.45685 110.195 9.41012C110.277 9.36339 110.348 9.30101 110.406 9.22649C110.464 9.15196 110.506 9.0668 110.531 8.97582C110.531 8.97582 112.332 2.24269 119.087 1.77494C121.472 1.60978 124.458 2.6618 126.748 4.32537C129.038 5.98894 130.564 8.21414 130.458 10.1873C130.167 15.6303 125.934 21.9739 125.934 21.9739C125.881 22.0519 125.844 22.1397 125.825 22.232C125.806 22.3243 125.805 22.4195 125.823 22.5121C125.84 22.6048 125.876 22.6931 125.928 22.772C125.98 22.8508 126.046 22.9185 126.124 22.9716C126.282 23.0787 126.475 23.119 126.662 23.0834C126.849 23.0479 127.014 22.9393 127.122 22.7819C127.122 22.7819 131.565 16.3676 131.892 10.2644C132.038 7.54043 130.12 5.00011 127.592 3.1635C125.38 1.55645 122.646 0.449817 120.077 0.331326V0.331622Z" fill="black"/>
<mask id="mask3_230_528" style="mask-type:luminance" maskUnits="userSpaceOnUse" x="-211" y="-1707" width="377" height="1989">
<path d="M165.028 281.857L165.028 -1706.97H-210.668L-210.668 281.857H165.028Z" fill="white"/>
</mask>
<g mask="url(#mask3_230_528)">
<path fill-rule="evenodd" clip-rule="evenodd" d="M120.094 11.1958C123.053 11.6807 126.463 12.8474 130.111 15.1808C128.732 19.1356 126.528 22.3782 126.528 22.3782C126.056 20.575 125.768 18.9841 125.768 18.9841C127.389 17.6659 127.472 15.0142 126.31 14.4535C125.073 13.8626 123.935 15.8779 123.935 15.8779C121.054 14.4991 120.094 11.1958 120.094 11.1958Z" fill="black"/>
</g>
<path d="M109.736 8.06442C109.02 8.05381 108.321 8.10178 107.657 8.22482C106.327 8.47104 105.107 9.04258 104.289 10.1064C104.034 10.4402 103.907 10.8645 103.932 11.2599C103.957 11.6553 104.107 12.01 104.311 12.3281C104.72 12.9643 105.357 13.4988 106.102 13.9811C107.592 14.946 109.497 15.68 111.052 15.7157C111.146 15.7179 111.239 15.7016 111.327 15.6675C111.415 15.6334 111.496 15.5823 111.564 15.5172C111.632 15.452 111.687 15.3741 111.725 15.2878C111.763 15.2015 111.784 15.1086 111.786 15.0143C111.788 14.9201 111.772 14.8263 111.738 14.7384C111.703 14.6504 111.652 14.57 111.587 14.5018C111.522 14.4336 111.444 14.3789 111.358 14.3408C111.272 14.3027 111.179 14.282 111.085 14.2798C110.002 14.255 108.159 13.6024 106.882 12.7754C106.243 12.362 105.742 11.8994 105.519 11.5521C105.408 11.3785 105.369 11.2448 105.365 11.1697C105.36 11.095 105.363 11.0659 105.428 10.9806C105.979 10.2644 106.819 9.83967 107.919 9.63617C109.018 9.43252 110.348 9.47133 111.718 9.66695C114.457 10.058 117.346 11.0643 119.013 11.7391C119.1 11.7745 119.194 11.7924 119.288 11.7917C119.382 11.7909 119.475 11.7715 119.562 11.7347C119.649 11.6979 119.728 11.6444 119.794 11.5771C119.86 11.5099 119.912 11.4303 119.947 11.3429C120.019 11.1663 120.017 10.9686 119.943 10.7933C119.869 10.618 119.728 10.4793 119.551 10.4078C117.813 9.70387 114.858 8.66465 111.921 8.24524C111.187 8.14038 110.453 8.07338 109.737 8.06353L109.736 8.06442Z" fill="black"/>
<path d="M112.596 13.8237C111.379 13.7507 110.562 14.4887 110.562 14.4887C110.427 14.6226 110.351 14.8048 110.35 14.9952C110.349 15.1856 110.423 15.3687 110.557 15.5041C110.691 15.6395 110.873 15.7161 111.063 15.7173C111.254 15.7184 111.437 15.6439 111.572 15.5101C111.572 15.5101 111.915 15.0797 112.787 15.3013C112.878 15.3246 112.973 15.3296 113.067 15.3161C113.16 15.3026 113.25 15.271 113.331 15.2228C113.412 15.1746 113.483 15.1108 113.539 15.0353C113.595 14.9597 113.636 14.8737 113.66 14.7822C113.706 14.5977 113.678 14.4021 113.581 14.2385C113.484 14.0748 113.325 13.9564 113.141 13.9095C112.952 13.8615 112.77 13.8343 112.596 13.824L112.596 13.8237Z" fill="black"/>
<mask id="mask4_230_528" style="mask-type:luminance" maskUnits="userSpaceOnUse" x="-211" y="-1707" width="377" height="1989">
<path d="M164.836 281.821L165.027 -1706.97L-210.478 -1706.93L-210.669 281.857L164.836 281.821Z" fill="white"/>
</mask>
<g mask="url(#mask4_230_528)">
<path fill-rule="evenodd" clip-rule="evenodd" d="M118.131 16.6931C118.187 16.9581 118.192 17.2225 118.145 17.4284C118.098 17.6343 118.002 17.7647 117.878 17.7909C117.755 17.8172 117.615 17.737 117.488 17.5682C117.361 17.3994 117.258 17.1557 117.201 16.8908C117.145 16.6259 117.14 16.3613 117.188 16.1554C117.235 15.9495 117.331 15.8192 117.454 15.793C117.577 15.7668 117.718 15.8468 117.845 16.0156C117.972 16.1844 118.075 16.4282 118.131 16.6931Z" fill="black"/>
</g>
<mask id="mask5_230_528" style="mask-type:luminance" maskUnits="userSpaceOnUse" x="-211" y="-1707" width="377" height="1989">
<path d="M164.836 281.821L165.027 -1706.97L-210.478 -1706.93L-210.669 281.857L164.836 281.821Z" fill="white"/>
</mask>
<g mask="url(#mask5_230_528)">
<path fill-rule="evenodd" clip-rule="evenodd" d="M113.805 17.6971C113.861 17.962 113.866 18.2264 113.819 18.4323C113.771 18.6382 113.676 18.7686 113.552 18.7949C113.429 18.8211 113.288 18.7409 113.161 18.5721C113.034 18.4033 112.932 18.1596 112.875 17.8947C112.819 17.6298 112.814 17.3653 112.861 17.1595C112.909 16.9536 113.005 16.8231 113.128 16.7969C113.251 16.7707 113.392 16.8509 113.519 17.0197C113.646 17.1885 113.749 17.4321 113.805 17.6971Z" fill="black"/>
</g>
<path d="M130.018 40.9305C129.924 40.9238 129.83 40.9357 129.74 40.9655C129.651 40.9953 129.568 41.0425 129.497 41.1043C129.425 41.166 129.367 41.2413 129.325 41.3256C129.283 41.41 129.258 41.5017 129.251 41.5958C129.182 42.57 128.701 45.0853 128.152 47.473C127.603 49.8605 126.94 52.2597 126.665 52.8893C126.665 52.8898 126.665 52.8903 126.665 52.8908C126.757 52.6793 126.686 52.8417 126.456 52.9608C126.227 53.08 125.897 53.2236 125.564 53.4113C125.231 53.5991 124.872 53.8249 124.615 54.236C124.357 54.6472 124.322 55.2769 124.577 55.7863C124.89 56.4219 125.188 56.9647 125.421 57.3696C125.516 57.5345 125.673 57.6548 125.857 57.7042C126.041 57.7535 126.237 57.7277 126.402 57.6325C126.483 57.5854 126.555 57.5227 126.612 57.4479C126.67 57.3731 126.712 57.2877 126.736 57.1966C126.761 57.1055 126.767 57.0105 126.755 56.9169C126.742 56.8234 126.712 56.7333 126.665 56.6516C126.444 56.2695 126.161 55.7524 125.863 55.1476C125.862 55.1466 125.861 55.1455 125.861 55.1445C125.775 54.972 125.799 55.0504 125.831 54.9995C125.863 54.9485 126.023 54.8014 126.268 54.6633C126.513 54.5253 126.821 54.3902 127.117 54.2367C127.413 54.0832 127.756 53.9787 127.98 53.4659C128.415 52.4739 128.995 50.2147 129.552 47.7957C130.108 45.3763 130.595 42.9369 130.683 41.6988C130.697 41.5089 130.634 41.3213 130.51 41.1774C130.385 41.0334 130.208 40.9449 130.018 40.9313L130.018 40.9305Z" fill="black"/>
<path d="M126.524 55.2992C126.342 55.3552 126.189 55.4811 126.1 55.6493C126.011 55.8175 125.992 56.0143 126.048 56.1964C126.104 56.3784 126.23 56.5307 126.398 56.62C126.398 56.62 132.155 59.7249 135.089 63.8401C135.329 64.1826 135.544 64.5294 135.742 64.8774C135.452 64.652 135.123 64.3797 134.723 63.9976C134.586 63.866 134.402 63.7946 134.211 63.7989C134.021 63.8031 133.84 63.8828 133.709 64.0204C133.577 64.158 133.506 64.3423 133.51 64.5326C133.514 64.723 133.594 64.9038 133.731 65.0355C135.131 66.3743 135.825 66.8917 136.593 66.9937C136.978 67.0446 137.498 66.8014 137.662 66.4575C137.826 66.1135 137.785 65.863 137.691 65.6128C137.69 65.6098 137.689 65.6068 137.688 65.6038C137.336 64.703 136.841 63.8374 136.263 63.0131C136.262 63.0116 136.261 63.01 136.26 63.0085C133.017 58.4579 127.071 55.3513 127.071 55.3513C126.987 55.3071 126.896 55.2798 126.802 55.2708C126.709 55.2619 126.614 55.2715 126.524 55.2992Z" fill="black"/>
<path d="M140.394 62.9103C140.206 62.8847 140.015 62.9351 139.863 63.0503L136.597 65.5359C136.445 65.6513 136.346 65.8221 136.32 66.0108C136.294 66.1995 136.345 66.3906 136.46 66.5422C136.575 66.6938 136.746 66.7933 136.934 66.819C137.123 66.8447 137.314 66.7944 137.466 66.6792L140.732 64.1936C140.884 64.0782 140.983 63.9074 141.009 63.7187C141.035 63.53 140.984 63.3389 140.869 63.1873C140.812 63.1122 140.741 63.0492 140.659 63.0016C140.578 62.9541 140.488 62.923 140.394 62.9103Z" fill="black"/>
<path d="M97.4196 43.5031C97.3265 43.4886 97.2314 43.4927 97.1398 43.515C97.0482 43.5372 96.9619 43.5773 96.8857 43.6329C96.8096 43.6885 96.7452 43.7585 96.6961 43.839C96.6471 43.9196 96.6144 44.009 96.5999 44.1021C96.5706 44.2903 96.6172 44.4825 96.7295 44.6363C96.8418 44.7901 97.0105 44.8929 97.1986 44.9222C98.3902 45.1078 100.433 46.54 103.696 49.6847C104.308 50.2733 105.365 50.7952 106.853 51.476C108.341 52.1566 110.213 52.9211 112.225 53.69C116.249 55.2276 120.824 56.7798 123.96 57.6757C123.96 57.6757 123.961 57.6757 123.962 57.6757C125.067 57.9869 125.897 57.9016 126.484 57.5936C127.071 57.2857 127.366 56.8717 127.521 56.7549C127.673 56.6403 127.774 56.4701 127.8 56.2815C127.827 56.093 127.777 55.9015 127.663 55.7494C127.606 55.6741 127.535 55.6106 127.454 55.5627C127.373 55.5148 127.283 55.4834 127.189 55.4702C127.096 55.457 127.001 55.4625 126.91 55.486C126.818 55.5096 126.733 55.5509 126.657 55.6077C126.229 55.9304 126.053 56.1983 125.817 56.3221C125.581 56.4459 125.237 56.5423 124.352 56.2931C121.283 55.4161 116.722 53.8702 112.737 52.3474C110.745 51.586 108.894 50.8293 107.45 50.169C106.006 49.5088 104.921 48.87 104.69 48.6478C101.382 45.4595 99.3385 43.8006 97.4191 43.5015L97.4196 43.5031Z" fill="black"/>
<path d="M92.4723 44.0947C92.3578 44.0795 92.2546 44.0932 92.1659 44.1099C91.9884 44.142 91.8397 44.2097 91.6996 44.3042C91.4194 44.4932 91.1754 44.8144 91.0884 45.2314C90.9145 46.0652 91.3499 47.0345 92.6025 48.1694C93.5537 49.0349 94.8287 49.3583 94.8287 49.3583C95.0119 49.4102 95.2082 49.3872 95.3744 49.2944C95.5406 49.2016 95.6631 49.0464 95.7151 48.8632C95.767 48.68 95.7441 48.4838 95.6513 48.3175C95.5585 48.1512 95.4036 48.0285 95.2204 47.9766C95.2204 47.9766 94.1461 47.6333 93.5676 47.1062C93.567 47.1057 93.5665 47.1052 93.566 47.1047C92.8183 46.4274 92.5952 45.9819 92.5273 45.7366C93.4823 46.3175 94.5129 46.7359 95.6558 47.3462C97.3101 48.2285 98.7488 47.501 99.3237 47.1953C99.4069 47.151 99.4806 47.0908 99.5406 47.018C99.6006 46.9452 99.6456 46.8614 99.6732 46.7712C99.7007 46.681 99.7102 46.5863 99.7012 46.4924C99.6921 46.3985 99.6647 46.3072 99.6204 46.224C99.531 46.0559 99.3786 45.9303 99.1965 45.8746C99.0145 45.819 98.8178 45.8378 98.6498 45.9272C98.0281 46.2576 97.461 46.6814 96.3315 46.0793C94.8962 45.3129 93.7333 44.8709 92.8498 44.2474C92.8487 44.2469 92.8476 44.2464 92.8466 44.2459C92.7121 44.1521 92.5863 44.1101 92.4718 44.0956L92.4723 44.0947ZM92.0227 45.4205C92.0245 45.4205 92.0265 45.4221 92.0283 45.4236C92.0268 45.4236 92.0268 45.4236 92.0256 45.4236L92.0227 45.4205Z" fill="black"/>
<path d="M91.2181 39.2241C91.1048 39.2148 90.991 39.2326 90.886 39.276C90.7809 39.3194 90.6876 39.3869 90.6139 39.4734C90.5401 39.5598 90.4878 39.6626 90.4615 39.7732C90.4351 39.8838 90.4354 39.9991 90.4622 40.1095L91.6497 44.9884C91.672 45.0801 91.7121 45.1663 91.7678 45.2425C91.8234 45.3186 91.8935 45.3832 91.9741 45.4322C92.0546 45.4812 92.1441 45.5139 92.2372 45.5284C92.3304 45.5428 92.4255 45.5387 92.5171 45.5164C92.6087 45.4941 92.6951 45.454 92.7711 45.3983C92.8472 45.3426 92.9116 45.2725 92.9606 45.1919C93.0096 45.1113 93.0422 45.0219 93.0566 44.9287C93.071 44.8355 93.067 44.7403 93.0446 44.6487L92.0923 40.7363L94.7883 40.9571L95.7193 41.0761L97.3633 47.1577C97.413 47.3415 97.5337 47.498 97.6987 47.5929C97.8638 47.6877 98.0597 47.7131 98.2435 47.6635C98.4272 47.6137 98.5837 47.4931 98.6785 47.328C98.7733 47.1629 98.7987 46.9669 98.7491 46.783L96.9799 40.2371C96.9428 40.0998 96.8657 39.9767 96.7586 39.8833C96.6514 39.7899 96.5189 39.7304 96.3779 39.7124L94.954 39.5304C94.9433 39.5291 94.9325 39.5282 94.9217 39.5274L91.2181 39.2241Z" fill="black"/>
<path d="M94.6828 39.5476C94.5915 39.5713 94.5059 39.6128 94.4306 39.6696C94.3554 39.7265 94.2921 39.7975 94.2444 39.8789C94.1966 39.9602 94.1654 40.05 94.1524 40.1434C94.1394 40.2368 94.1449 40.332 94.1686 40.4232L95.915 47.1509C95.9629 47.3352 96.082 47.4929 96.2461 47.5894C96.4102 47.6858 96.6058 47.7131 96.7901 47.6653C96.9743 47.6174 97.132 47.4983 97.2285 47.3341C97.325 47.17 97.3523 46.9742 97.3045 46.7899L95.5582 40.0622C95.5345 39.9709 95.4931 39.8852 95.4363 39.8099C95.3795 39.7346 95.3084 39.6713 95.2271 39.6235C95.1458 39.5757 95.0559 39.5443 94.9625 39.5313C94.8691 39.5182 94.774 39.5238 94.6828 39.5476Z" fill="black"/>
<path d="M92.7922 46.5601C92.6031 46.5378 92.413 46.5915 92.2635 46.7094C92.114 46.8274 92.0175 46.9999 91.9952 47.189C91.8476 48.4398 91.6324 49.8939 92.5937 51.1248C92.9903 51.6316 93.8563 52.6799 94.7939 53.6552C95.2627 54.143 95.7469 54.6112 96.2121 54.9883C96.6774 55.3654 97.0834 55.6743 97.6345 55.7814C97.6375 55.7819 97.6405 55.7824 97.6435 55.7829C98.4342 55.9262 99.4197 55.8201 100.382 55.7921C100.864 55.7784 101.326 55.7784 101.691 55.8141C102.055 55.8497 102.314 55.9432 102.359 55.9732C102.543 56.1014 103.684 56.9349 105.31 58.0679C106.939 59.2029 109.087 60.6608 111.397 62.1125C113.707 63.5643 116.177 65.0099 118.464 66.1245C120.751 67.2392 122.828 68.0387 124.515 68.1421C130.032 68.476 133.994 65.6844 136.122 63.9864C136.196 63.9276 136.258 63.8549 136.303 63.7723C136.349 63.6898 136.378 63.5991 136.388 63.5054C136.399 63.4117 136.391 63.3168 136.365 63.2262C136.339 63.1356 136.295 63.051 136.236 62.9773C136.177 62.9036 136.105 62.8421 136.022 62.7965C135.94 62.7508 135.849 62.7219 135.755 62.7114C135.661 62.7008 135.567 62.7089 135.476 62.735C135.385 62.7612 135.301 62.8048 135.227 62.8636C133.178 64.499 129.597 67.0107 124.602 66.7085C123.322 66.63 121.305 65.9124 119.092 64.8337C116.879 63.755 114.443 62.3311 112.16 60.8965C109.877 59.4617 107.746 58.0157 106.13 56.8894C104.514 55.7632 103.449 54.982 103.171 54.7894C103.169 54.7879 103.167 54.7863 103.164 54.7848C102.75 54.5041 102.304 54.4314 101.83 54.385C101.355 54.3386 100.846 54.3421 100.341 54.3566C99.3322 54.3857 98.2858 54.4378 97.9044 54.3702C97.8671 54.3611 97.5036 54.1872 97.1154 53.8724C96.7249 53.5559 96.2715 53.1215 95.8282 52.6603C94.9419 51.7381 94.0866 50.7035 93.7242 50.2403C93.1712 49.5317 93.2711 48.6217 93.4203 47.3577C93.4427 47.1686 93.389 46.9784 93.2711 46.8288C93.1532 46.6793 92.9807 46.5828 92.7917 46.5604L92.7922 46.5601Z" fill="black"/>
<mask id="mask6_230_528" style="mask-type:luminance" maskUnits="userSpaceOnUse" x="-216" y="-1712" width="377" height="2005">
<path d="M160.157 277.521L160.157 -1711.28L-215.539 -1696.65L-215.539 292.158L160.157 277.521Z" fill="white"/>
</mask>
<g mask="url(#mask6_230_528)">
<path fill-rule="evenodd" clip-rule="evenodd" d="M42.4038 21.5679L45.0826 21.4636V27.1262L42.4038 27.2304V21.5679Z" fill="black"/>
</g>
<mask id="mask7_230_528" style="mask-type:luminance" maskUnits="userSpaceOnUse" x="-216" y="-1712" width="377" height="2005">
<path d="M160.157 277.517L160.157 -1711.28L-215.539 -1696.64L-215.539 292.158L160.157 277.517Z" fill="white"/>
</mask>
<g mask="url(#mask7_230_528)">
<path fill-rule="evenodd" clip-rule="evenodd" d="M46.4219 16.6011L49.1006 16.4968V27.1142L46.4219 27.2184V16.6011Z" fill="black"/>
</g>
<mask id="mask8_230_528" style="mask-type:luminance" maskUnits="userSpaceOnUse" x="-216" y="-1712" width="377" height="2005">
<path d="M160.157 277.517L160.157 -1711.28L-215.539 -1696.64L-215.539 292.158L160.157 277.517Z" fill="white"/>
</mask>
<g mask="url(#mask8_230_528)">
<path fill-rule="evenodd" clip-rule="evenodd" d="M50.4399 23.3936L53.1187 23.2893V27.1191L50.4399 27.2233V23.3936Z" fill="black"/>
</g>
<mask id="mask9_230_528" style="mask-type:luminance" maskUnits="userSpaceOnUse" x="-216" y="-1712" width="377" height="2005">
<path d="M160.157 277.517L160.157 -1711.28L-215.539 -1696.64L-215.539 292.158L160.157 277.517Z" fill="white"/>
</mask>
<g mask="url(#mask9_230_528)">
<path fill-rule="evenodd" clip-rule="evenodd" d="M54.458 19.2515L57.1368 19.1472V27.1103L54.458 27.2145V19.2515Z" fill="black"/>
</g>
<mask id="mask10_230_528" style="mask-type:luminance" maskUnits="userSpaceOnUse" x="-216" y="-1712" width="377" height="2005">
<path d="M160.157 277.517L160.157 -1711.28L-215.539 -1696.64L-215.539 292.158L160.157 277.517Z" fill="white"/>
</mask>
<g mask="url(#mask10_230_528)">
<path fill-rule="evenodd" clip-rule="evenodd" d="M58.4761 15.7952L61.1548 15.6909V27.0918L58.4761 27.196V15.7952Z" fill="black"/>
</g>
<path d="M145.073 157.499C144.257 157.536 143.571 157.794 143.046 158.207C142.345 158.758 141.941 159.515 141.64 160.249C141.639 160.25 141.639 160.25 141.638 160.251C141.436 160.749 140.423 161.617 139.076 162.221C137.729 162.824 136.083 163.228 134.753 163.228C133.279 163.228 132.152 164.064 131.687 165.099C131.455 165.616 131.377 166.193 131.519 166.747C131.662 167.299 132.05 167.812 132.617 168.111C133.286 168.469 134.181 168.572 135.437 168.7C136.695 168.828 138.244 168.91 139.883 168.956C143.159 169.048 146.782 168.991 149.082 168.829C150.996 168.699 152.23 168.528 153.102 168.238C153.538 168.093 153.893 167.914 154.177 167.657C154.461 167.4 154.649 167.056 154.723 166.724C155.209 164.544 155.003 162.69 154.508 161.361C154.26 160.696 153.944 160.16 153.566 159.766C153.187 159.371 152.695 159.054 152.092 159.165C152.091 159.165 152.09 159.165 152.09 159.165C150.356 159.489 149.539 159.204 148.762 158.794C147.985 158.384 147.211 157.711 145.937 157.538C145.935 157.538 145.934 157.538 145.932 157.538C145.632 157.499 145.345 157.487 145.073 157.5L145.073 157.499ZM145.135 158.926C145.316 158.921 145.518 158.932 145.746 158.961C146.588 159.076 147.141 159.561 148.093 160.064C149.045 160.567 150.36 160.948 152.352 160.576C152.242 160.596 152.336 160.557 152.53 160.76C152.725 160.962 152.969 161.343 153.163 161.862C153.55 162.9 153.752 164.485 153.323 166.411C153.304 166.496 153.294 166.521 153.215 166.591C153.137 166.663 152.965 166.77 152.649 166.875C152.017 167.085 150.85 167.269 148.984 167.396C148.983 167.396 148.982 167.396 148.982 167.396C146.765 167.553 143.153 167.61 139.923 167.52C138.307 167.475 136.784 167.393 135.582 167.271C134.381 167.149 133.428 166.917 133.293 166.844C133.291 166.843 133.29 166.842 133.288 166.841C133.05 166.715 132.958 166.575 132.91 166.387C132.861 166.199 132.881 165.946 132.997 165.687C133.23 165.169 133.81 164.664 134.753 164.664C136.362 164.664 138.143 164.211 139.663 163.531C141.182 162.851 142.474 162.007 142.968 160.794L142.969 160.791C143.228 160.163 143.535 159.648 143.933 159.335C144.231 159.101 144.589 158.941 145.135 158.925L145.135 158.926Z" fill="black"/>
<path d="M143.617 153.16C143.433 153.209 143.276 153.329 143.18 153.493C143.084 153.658 143.058 153.854 143.106 154.038L144.261 158.402C144.309 158.586 144.429 158.743 144.594 158.839C144.758 158.935 144.954 158.961 145.138 158.912C145.322 158.864 145.479 158.744 145.575 158.579C145.671 158.415 145.697 158.219 145.649 158.035L144.494 153.671C144.47 153.579 144.429 153.494 144.371 153.419C144.314 153.344 144.243 153.281 144.161 153.234C144.08 153.186 143.99 153.155 143.896 153.143C143.803 153.13 143.708 153.136 143.617 153.16Z" fill="black"/>
<path d="M150.754 151.182C150.661 151.201 150.574 151.238 150.496 151.291C150.418 151.344 150.351 151.412 150.3 151.491C150.248 151.57 150.212 151.658 150.195 151.751C150.177 151.844 150.178 151.939 150.197 152.031L151.868 160.062C151.907 160.248 152.018 160.412 152.177 160.516C152.336 160.621 152.531 160.657 152.717 160.619C152.903 160.58 153.067 160.468 153.171 160.309C153.275 160.15 153.312 159.956 153.273 159.769L151.603 151.739C151.584 151.646 151.546 151.559 151.493 151.481C151.44 151.403 151.372 151.336 151.293 151.284C151.215 151.233 151.126 151.197 151.034 151.179C150.941 151.162 150.846 151.163 150.754 151.182Z" fill="black"/>
<path d="M100.142 158.202C99.7597 158.219 99.398 158.264 99.0676 158.355C98.7372 158.446 98.4012 158.543 98.1354 158.94C97.5469 159.819 96.1964 160.808 94.443 161.552C92.6901 162.296 90.5449 162.817 88.3863 162.926C86.6739 163.009 85.542 163.635 85.0293 164.509C84.773 164.946 84.6822 165.449 84.8068 165.915C84.9315 166.38 85.294 166.789 85.7672 166.967C85.9935 167.052 86.122 167.056 86.3441 167.083C86.5661 167.111 86.8409 167.136 87.168 167.161C87.8222 167.21 88.683 167.257 89.685 167.3C91.6889 167.387 94.2532 167.46 96.7911 167.509C99.329 167.558 101.839 167.584 103.736 167.575C104.684 167.571 105.478 167.558 106.054 167.535C106.342 167.523 106.574 167.51 106.759 167.49C106.851 167.481 106.93 167.471 107.02 167.451C107.065 167.442 107.112 167.431 107.185 167.402C107.257 167.373 107.38 167.367 107.547 167.11C108.221 166.071 108.109 164.673 107.856 163.41C107.73 162.778 107.547 162.191 107.298 161.706C107.174 161.463 107.035 161.244 106.844 161.052C106.653 160.859 106.381 160.671 106.018 160.653H106.03C104.612 160.563 104.21 160.229 103.889 159.863C103.728 159.681 103.593 159.457 103.389 159.197C103.184 158.938 102.875 158.636 102.438 158.481C102.435 158.48 102.433 158.479 102.43 158.478C101.737 158.242 100.907 158.168 100.142 158.201L100.142 158.202ZM100.206 159.637C100.81 159.61 101.541 159.694 101.961 159.836C102.078 159.878 102.135 159.926 102.262 160.087C102.388 160.248 102.551 160.516 102.811 160.812C103.32 161.391 104.235 161.946 105.831 162.071C105.869 162.111 105.945 162.211 106.022 162.361C106.18 162.671 106.343 163.161 106.449 163.691C106.627 164.581 106.573 165.576 106.429 166.073C106.305 166.082 106.188 166.092 105.997 166.1C105.453 166.122 104.668 166.135 103.729 166.139C101.851 166.148 99.3484 166.122 96.8192 166.073C94.29 166.024 91.7333 165.951 89.7474 165.865C88.7545 165.822 87.9034 165.776 87.2763 165.729C86.9627 165.705 86.7045 165.681 86.5198 165.658C86.3351 165.635 86.183 165.589 86.2736 165.623C86.2038 165.596 86.2065 165.59 86.1941 165.543C86.1816 165.497 86.1764 165.391 86.2677 165.236C86.4503 164.924 87.062 164.428 88.4564 164.36C88.4569 164.36 88.4574 164.36 88.4579 164.36C90.7975 164.242 93.0868 163.688 95.004 162.874C96.9211 162.061 98.4769 161.012 99.3289 159.739C99.2305 159.886 99.2725 159.788 99.4499 159.739C99.6272 159.69 99.9027 159.65 100.206 159.637H100.206Z" fill="black"/>
<path d="M99.4204 154.97C99.2301 154.972 99.0485 155.05 98.9155 155.186C98.7824 155.322 98.7089 155.506 98.711 155.696L98.7488 159.015C98.751 159.205 98.8287 159.387 98.9648 159.52C99.1008 159.653 99.2842 159.727 99.4745 159.725C99.5688 159.724 99.662 159.704 99.7486 159.667C99.8353 159.63 99.9139 159.576 99.9798 159.509C100.046 159.441 100.098 159.361 100.133 159.274C100.168 159.186 100.185 159.093 100.184 158.998L100.146 155.68C100.144 155.49 100.066 155.308 99.9303 155.175C99.7942 155.042 99.6108 154.968 99.4204 154.97Z" fill="black"/>
<path d="M106.235 155.668C106.141 155.662 106.047 155.674 105.958 155.704C105.868 155.734 105.785 155.781 105.714 155.843C105.643 155.905 105.585 155.98 105.543 156.065C105.501 156.149 105.476 156.241 105.47 156.335C105.47 156.335 105.396 157.404 105.331 158.563C105.298 159.143 105.268 159.745 105.251 160.253C105.233 160.761 105.219 161.129 105.251 161.429C105.26 161.523 105.288 161.614 105.333 161.697C105.378 161.78 105.439 161.853 105.512 161.913C105.586 161.972 105.67 162.016 105.76 162.043C105.85 162.07 105.945 162.079 106.039 162.069C106.133 162.059 106.224 162.031 106.307 161.986C106.389 161.942 106.463 161.881 106.522 161.807C106.582 161.734 106.626 161.65 106.653 161.56C106.68 161.469 106.688 161.374 106.679 161.28C106.673 161.225 106.668 160.793 106.685 160.303C106.702 159.812 106.732 159.217 106.764 158.643C106.828 157.496 106.902 156.435 106.902 156.435C106.909 156.341 106.897 156.246 106.867 156.157C106.837 156.067 106.789 155.985 106.727 155.913C106.666 155.842 106.59 155.784 106.506 155.742C106.421 155.7 106.33 155.675 106.235 155.668Z" fill="black"/>
<path d="M1.12235 144.303C0.936608 144.301 0.75732 144.371 0.622157 144.498C0.486994 144.626 0.406486 144.801 0.397539 144.986L0.000815516 153.305C-0.0037766 153.401 0.0110599 153.498 0.0444337 153.588C0.0778075 153.678 0.129037 153.761 0.195073 153.831C0.261109 153.902 0.340602 153.958 0.428806 153.997C0.51701 154.036 0.612114 154.056 0.708469 154.057L56.6119 154.785C56.7062 154.786 56.7997 154.769 56.8873 154.734C56.9749 154.699 57.0547 154.647 57.1222 154.581C57.1897 154.515 57.2436 154.437 57.2809 154.35C57.3181 154.264 57.3378 154.17 57.3391 154.076C57.3403 153.982 57.323 153.888 57.288 153.8C57.2531 153.713 57.2012 153.633 57.1354 153.565C57.0696 153.498 56.9912 153.444 56.9045 153.407C56.8179 153.37 56.7248 153.35 56.6305 153.349L1.47026 152.631L1.79865 145.746L2.52464 145.754C2.61892 145.755 2.71248 145.737 2.79998 145.702C2.88747 145.667 2.96719 145.615 3.03458 145.549C3.10197 145.483 3.15571 145.404 3.19272 145.318C3.22974 145.231 3.24933 145.138 3.25034 145.043C3.25134 144.949 3.23374 144.855 3.19859 144.768C3.16343 144.68 3.11139 144.601 3.04543 144.533C2.97947 144.466 2.9009 144.412 2.81418 144.375C2.72746 144.338 2.6343 144.319 2.54002 144.318L1.12235 144.303ZM93.3868 146C93.2925 145.998 93.1988 146.015 93.111 146.049C93.0232 146.083 92.943 146.135 92.875 146.2C92.8071 146.265 92.7526 146.344 92.7149 146.43C92.6771 146.516 92.6567 146.609 92.6549 146.704C92.6511 146.894 92.7232 147.078 92.8551 147.215C92.987 147.353 93.168 147.432 93.3584 147.436L94.9459 147.467L94.8308 153.839L63.4059 153.424C63.2155 153.422 63.032 153.495 62.8956 153.628C62.7592 153.761 62.6812 153.942 62.6787 154.133C62.6774 154.227 62.6948 154.321 62.7297 154.408C62.7646 154.496 62.8164 154.576 62.8822 154.643C62.9479 154.711 63.0264 154.765 63.113 154.802C63.1996 154.839 63.2927 154.859 63.387 154.861L95.526 155.285C95.7157 155.287 95.8987 155.214 96.035 155.082C96.1712 154.95 96.2497 154.769 96.2532 154.58L96.3943 146.776C96.3977 146.586 96.3255 146.402 96.1936 146.265C96.0616 146.128 95.8807 146.049 95.6905 146.045L93.3868 146Z" fill="black"/>
<path d="M9.6108 107.68C9.51662 107.676 9.42255 107.691 9.33395 107.723C9.24535 107.755 9.16396 107.804 9.09443 107.868C9.02489 107.932 8.96857 108.009 8.9287 108.094C8.88882 108.179 8.86617 108.272 8.86202 108.366C8.85365 108.556 8.92115 108.742 9.0497 108.883C9.17825 109.023 9.35731 109.107 9.54749 109.115L79.4907 112.206C79.5848 112.21 79.6789 112.196 79.7675 112.163C79.8561 112.131 79.9375 112.082 80.007 112.018C80.0766 111.955 80.1329 111.878 80.1728 111.792C80.2126 111.707 80.2353 111.614 80.2394 111.52C80.2478 111.33 80.1803 111.144 80.0517 111.004C79.9232 110.863 79.7441 110.78 79.554 110.771L9.6108 107.68ZM86.511 111.074C86.4168 111.07 86.3227 111.085 86.2341 111.117C86.1455 111.149 86.0641 111.198 85.9946 111.262C85.925 111.326 85.8687 111.403 85.8288 111.488C85.789 111.573 85.7663 111.666 85.7622 111.76C85.7539 111.95 85.8214 112.136 85.95 112.277C86.0785 112.417 86.2575 112.501 86.4477 112.509L90.2344 112.676C90.3286 112.68 90.4227 112.666 90.5113 112.633C90.5999 112.601 90.6813 112.552 90.7509 112.488C90.8204 112.424 90.8767 112.348 90.9166 112.262C90.9564 112.177 90.9791 112.084 90.9832 111.99C90.9915 111.8 90.924 111.614 90.7955 111.473C90.6669 111.333 90.4879 111.25 90.2977 111.241L86.511 111.074Z" fill="black"/>
<path d="M26.6581 74.9204C26.4678 74.9187 26.2845 74.9926 26.1486 75.126C26.0128 75.2594 25.9354 75.4412 25.9336 75.6316C25.9319 75.822 26.0058 76.0053 26.1391 76.1412C26.2724 76.2771 26.4542 76.3545 26.6445 76.3564L89.4414 76.9474C89.6317 76.9491 89.8149 76.8752 89.9508 76.7418C90.0867 76.6085 90.164 76.4266 90.1659 76.2362C90.1676 76.0458 90.0937 75.8625 89.9604 75.7266C89.8271 75.5907 89.6453 75.5133 89.455 75.5114L26.6581 74.9204Z" fill="black"/>
<path d="M51.9956 44.8433C51.9013 44.8426 51.8078 44.8605 51.7205 44.896C51.6331 44.9314 51.5536 44.9839 51.4865 45.0501C51.4194 45.1164 51.366 45.1951 51.3293 45.282C51.2927 45.3689 51.2735 45.4622 51.2728 45.5565L51.0654 75.8762C51.0648 75.9705 51.0827 76.064 51.1182 76.1514C51.1537 76.2388 51.2061 76.3182 51.2723 76.3853C51.3385 76.4525 51.4172 76.506 51.5041 76.5426C51.5909 76.5793 51.6842 76.5985 51.7784 76.5992C51.8727 76.5998 51.9662 76.5818 52.0535 76.5463C52.1408 76.5108 52.2203 76.4585 52.2875 76.3923C52.3546 76.3261 52.408 76.2472 52.4447 76.1603C52.4813 76.0734 52.5005 75.9802 52.5012 75.8859L52.7086 45.5663C52.7092 45.472 52.6913 45.3784 52.6558 45.291C52.6203 45.2037 52.568 45.1241 52.5018 45.0569C52.4356 44.9898 52.3568 44.9365 52.2699 44.8998C52.1831 44.8631 52.0899 44.8439 51.9956 44.8433Z" fill="black"/>
<path d="M45.5225 75.1021C45.4282 75.1013 45.3348 75.1192 45.2474 75.1546C45.16 75.19 45.0804 75.2422 45.0132 75.3083C44.946 75.3745 44.8925 75.4532 44.8557 75.5401C44.819 75.6269 44.7996 75.7201 44.7989 75.8144L44.5235 109.968C44.5219 110.158 44.5961 110.341 44.7296 110.477C44.863 110.613 45.0449 110.69 45.2353 110.692C45.3295 110.692 45.423 110.674 45.5104 110.639C45.5978 110.604 45.6774 110.551 45.7445 110.485C45.8117 110.419 45.8653 110.34 45.902 110.254C45.9388 110.167 45.9581 110.074 45.9589 109.979L46.2346 75.826C46.2354 75.7317 46.2175 75.6381 46.1822 75.5507C46.1468 75.4633 46.0945 75.3837 46.0284 75.3165C45.9623 75.2493 45.8836 75.1958 45.7968 75.159C45.71 75.1223 45.6168 75.1028 45.5225 75.1021Z" fill="black"/>
<path d="M31.6204 108.65C31.4301 108.644 31.2455 108.715 31.1071 108.846C30.9687 108.976 30.888 109.157 30.8826 109.347L29.8587 145.546C29.8533 145.736 29.9237 145.921 30.0544 146.06C30.1851 146.198 30.3654 146.279 30.5557 146.284C30.6499 146.287 30.7438 146.271 30.8319 146.237C30.9199 146.204 31.0005 146.153 31.069 146.088C31.1376 146.024 31.1927 145.946 31.2312 145.86C31.2697 145.774 31.2909 145.681 31.2935 145.587L32.3177 109.388C32.3204 109.294 32.3045 109.2 32.2709 109.112C32.2373 109.023 32.1866 108.943 32.1219 108.874C32.0571 108.806 31.9795 108.751 31.8935 108.712C31.8074 108.674 31.7147 108.652 31.6204 108.65Z" fill="black"/>
<path d="M0.931961 148.258C0.7416 148.256 0.558392 148.33 0.422632 148.464C0.286872 148.597 0.209679 148.779 0.208036 148.969C0.207199 149.064 0.22493 149.157 0.260234 149.245C0.295538 149.332 0.347724 149.412 0.413794 149.479C0.479864 149.546 0.558532 149.6 0.645309 149.637C0.732085 149.674 0.825265 149.693 0.919535 149.694L58.5391 150.194C58.7295 150.195 58.9127 150.121 59.0485 149.988C59.1842 149.854 59.2614 149.672 59.2631 149.482C59.2639 149.388 59.2462 149.294 59.2108 149.207C59.1755 149.119 59.1234 149.039 59.0573 148.972C58.9912 148.905 58.9126 148.851 58.8258 148.815C58.739 148.778 58.6458 148.758 58.5515 148.757L0.931961 148.258ZM65.9174 148.818C65.8231 148.817 65.7296 148.835 65.6422 148.87C65.5548 148.906 65.4753 148.958 65.408 149.024C65.3408 149.09 65.2872 149.169 65.2504 149.256C65.2136 149.343 65.1943 149.436 65.1935 149.53C65.1919 149.721 65.2659 149.904 65.3994 150.04C65.5328 150.175 65.7147 150.253 65.905 150.254L95.6161 150.512C95.7103 150.513 95.8038 150.495 95.8913 150.46C95.9787 150.424 96.0583 150.372 96.1255 150.306C96.1928 150.24 96.2464 150.161 96.2832 150.074C96.3201 149.988 96.3395 149.894 96.3403 149.8C96.3411 149.706 96.3233 149.612 96.288 149.525C96.2526 149.437 96.2004 149.358 96.1343 149.29C96.0682 149.223 95.9895 149.17 95.9027 149.133C95.8159 149.096 95.7228 149.077 95.6285 149.076L65.9174 148.818Z" fill="black"/>
<path d="M9.37042 152.756C8.57318 152.913 7.95446 153.378 7.54685 153.925C7.13923 154.473 6.91286 155.097 6.77263 155.679C6.49218 156.845 6.55992 157.912 6.55992 157.912C6.57039 158.092 6.64883 158.263 6.77953 158.388C6.91022 158.514 7.0835 158.585 7.26462 158.588L19.1992 158.785C19.3443 158.787 19.4867 158.746 19.6076 158.665C19.7286 158.585 19.8224 158.47 19.8766 158.335C19.8766 158.335 20.2128 157.51 20.2316 156.449C20.2505 155.388 19.9183 153.98 18.63 152.996C18.555 152.939 18.4696 152.897 18.3784 152.873C18.2873 152.849 18.1923 152.843 18.0989 152.855C18.0055 152.868 17.9154 152.898 17.8339 152.946C17.7524 152.993 17.681 153.056 17.6238 153.131C17.5666 153.206 17.5247 153.292 17.5006 153.383C17.4764 153.474 17.4704 153.569 17.483 153.662C17.4955 153.756 17.5264 153.846 17.5737 153.928C17.6211 154.009 17.6841 154.08 17.759 154.138C18.6337 154.806 18.81 155.648 18.7962 156.424C18.7897 156.787 18.7309 157.097 18.6737 157.34L8.01191 157.164C8.03113 156.836 8.06697 156.437 8.16841 156.015C8.27886 155.556 8.45664 155.108 8.69826 154.783C8.93989 154.458 9.21521 154.251 9.64792 154.165C9.74043 154.147 9.82846 154.111 9.90696 154.059C9.98546 154.006 10.0529 153.939 10.1054 153.861C10.158 153.782 10.1946 153.695 10.2131 153.602C10.2317 153.51 10.2318 153.414 10.2136 153.322C10.1767 153.135 10.0672 152.97 9.90905 152.864C9.75093 152.758 9.55719 152.719 9.37042 152.756Z" fill="black"/>
<path d="M13.5954 152.805C12.0698 153.147 11.344 154.553 10.9953 155.703C10.6465 156.853 10.6204 157.91 10.6204 157.91C10.6149 158.1 10.6851 158.285 10.8157 158.423C10.9463 158.562 11.1266 158.643 11.3168 158.649C11.4111 158.651 11.5049 158.635 11.593 158.602C11.6812 158.568 11.7618 158.518 11.8304 158.453C11.8989 158.388 11.9541 158.311 11.9927 158.225C12.0313 158.139 12.0525 158.046 12.0553 157.952C12.0553 157.952 12.0859 157.054 12.3691 156.12C12.6524 155.187 13.1338 154.381 13.909 154.207C14.001 154.186 14.088 154.148 14.1652 154.094C14.2423 154.039 14.308 153.97 14.3585 153.891C14.4089 153.811 14.4432 153.722 14.4594 153.629C14.4756 153.537 14.4733 153.441 14.4528 153.349C14.4322 153.257 14.3937 153.17 14.3394 153.093C14.2852 153.016 14.2163 152.95 14.1367 152.9C14.0571 152.849 13.9683 152.815 13.8754 152.799C13.7826 152.783 13.6874 152.785 13.5954 152.805Z" fill="black"/>
<path d="M7.69936 157.153C7.60532 157.147 7.51087 157.158 7.4214 157.188C7.33194 157.218 7.24921 157.265 7.17794 157.327C7.10668 157.389 7.04829 157.464 7.00608 157.548C6.96387 157.633 6.93867 157.724 6.93195 157.818C6.85282 158.921 7.06785 160.683 8.05467 162.281C9.04149 163.88 10.8943 165.241 13.7564 165.225C16.0333 165.216 17.7002 164.22 18.6357 162.802C19.5715 161.383 19.8185 159.608 19.5715 157.96C19.5432 157.772 19.4413 157.603 19.2881 157.489C19.135 157.376 18.9432 157.328 18.755 157.357C18.5667 157.385 18.3973 157.487 18.2842 157.64C18.171 157.793 18.1232 157.985 18.1514 158.173C18.3543 159.526 18.128 160.963 17.4373 162.01C16.7466 163.058 15.6343 163.782 13.7496 163.789C13.7491 163.789 13.7486 163.789 13.7481 163.789C11.3194 163.802 10.0524 162.784 9.27614 161.527C8.49984 160.269 8.30838 158.697 8.36406 157.921C8.37083 157.827 8.359 157.733 8.32925 157.643C8.2995 157.554 8.25241 157.471 8.19068 157.4C8.12895 157.328 8.0538 157.27 7.96949 157.228C7.88518 157.185 7.79341 157.16 7.69936 157.153Z" fill="black"/>
<path d="M10.4109 157.208C10.318 157.192 10.2229 157.194 10.1309 157.215C10.0389 157.235 9.95187 157.274 9.87476 157.328C9.79764 157.382 9.73197 157.451 9.68148 157.531C9.63099 157.61 9.59667 157.699 9.58049 157.792C9.58049 157.792 9.33634 159.165 9.64261 160.761C9.94889 162.357 10.8799 164.292 13.1309 165.175C13.2186 165.209 13.3123 165.226 13.4066 165.225C13.5008 165.223 13.5938 165.202 13.6802 165.165C13.7666 165.127 13.8448 165.072 13.9101 165.005C13.9755 164.937 14.0269 164.856 14.0613 164.769C14.0957 164.681 14.1125 164.587 14.1107 164.493C14.1089 164.399 14.0885 164.306 14.0508 164.219C14.013 164.133 13.9586 164.055 13.8907 163.989C13.8228 163.924 13.7426 163.872 13.6548 163.838C11.9251 163.16 11.3037 161.799 11.0526 160.49C10.8015 159.181 10.9949 158.038 10.9949 158.038C11.0275 157.851 10.9843 157.658 10.8748 157.502C10.7652 157.347 10.5984 157.241 10.4109 157.208Z" fill="black"/>
<mask id="mask11_230_528" style="mask-type:luminance" maskUnits="userSpaceOnUse" x="-211" y="-1707" width="377" height="1989">
<path d="M165.028 281.857L165.028 -1706.97H-210.668L-210.668 281.857H165.028Z" fill="white"/>
</mask>
<g mask="url(#mask11_230_528)">
<path fill-rule="evenodd" clip-rule="evenodd" d="M15.9005 159.173C15.9005 159.345 15.8668 159.514 15.8011 159.673C15.7355 159.831 15.6393 159.976 15.518 160.097C15.3968 160.218 15.2528 160.314 15.0943 160.38C14.9359 160.446 14.7661 160.48 14.5946 160.48C14.4231 160.48 14.2532 160.446 14.0948 160.38C13.9363 160.314 13.7924 160.218 13.6711 160.097C13.5498 159.976 13.4536 159.831 13.388 159.673C13.3224 159.514 13.2886 159.345 13.2886 159.173C13.2886 159.002 13.3224 158.832 13.388 158.673C13.4536 158.515 13.5498 158.371 13.6711 158.249C13.7924 158.128 13.9363 158.032 14.0948 157.966C14.2532 157.9 14.4231 157.867 14.5946 157.867C14.7661 157.867 14.9359 157.9 15.0943 157.966C15.2528 158.032 15.3968 158.128 15.518 158.249C15.6393 158.371 15.7355 158.515 15.8011 158.673C15.8668 158.832 15.9005 159.002 15.9005 159.173Z" fill="black"/>
</g>
<path d="M36.1365 153.093C36.0444 153.072 35.9492 153.07 35.8564 153.087C35.7635 153.103 35.6748 153.138 35.5954 153.189C35.5954 153.189 32.4093 155.31 33.1106 159.297C33.1399 159.464 33.2268 159.614 33.3561 159.723C33.4854 159.831 33.6489 159.891 33.8177 159.891H45.5718C45.7358 159.891 45.895 159.835 46.0226 159.732C46.1503 159.629 46.2389 159.485 46.2735 159.324C46.2735 159.324 46.5227 158.195 46.4232 156.891C46.3735 156.239 46.2394 155.528 45.9105 154.865C45.5816 154.202 45.0316 153.586 44.2325 153.24C44.1459 153.203 44.0529 153.183 43.9586 153.182C43.8643 153.181 43.7707 153.198 43.6831 153.233C43.5955 153.267 43.5156 153.319 43.448 153.385C43.3804 153.45 43.3264 153.529 43.2891 153.615C43.2137 153.79 43.2108 153.988 43.281 154.165C43.3512 154.342 43.4888 154.484 43.6636 154.559C44.1277 154.76 44.4121 155.075 44.6245 155.503C44.8369 155.931 44.9512 156.47 44.9916 157C45.0351 157.57 44.9992 158.076 44.9543 158.455H34.481C34.3024 155.687 36.3687 154.399 36.3687 154.399C36.5291 154.296 36.6423 154.134 36.6832 153.948C36.7241 153.762 36.6896 153.568 36.5871 153.407C36.5363 153.328 36.4704 153.259 36.3931 153.205C36.3158 153.151 36.2286 153.113 36.1365 153.093Z" fill="black"/>
<path d="M40.5421 153.19C40.3658 153.118 40.1682 153.119 39.9927 153.193C39.9927 153.193 36.3589 154.826 36.5068 159.198C36.5133 159.388 36.595 159.568 36.7341 159.698C36.8732 159.828 37.0582 159.898 37.2485 159.891C37.3427 159.888 37.4354 159.866 37.5212 159.827C37.607 159.788 37.6844 159.733 37.7487 159.664C37.8131 159.595 37.8633 159.514 37.8964 159.426C37.9295 159.338 37.9449 159.244 37.9417 159.149C37.8199 155.551 40.5477 154.517 40.5477 154.517C40.7233 154.444 40.8624 154.303 40.9345 154.127C41.0066 153.951 41.0058 153.753 40.9323 153.578C40.8959 153.491 40.8427 153.412 40.7757 153.345C40.7088 153.279 40.6294 153.226 40.5421 153.19V153.19Z" fill="black"/>
<path d="M34.4719 158.455C34.3776 158.455 34.2842 158.473 34.1971 158.509C34.11 158.546 34.0309 158.598 33.9642 158.665C33.8975 158.732 33.8446 158.811 33.8085 158.898C33.7724 158.985 33.7539 159.079 33.7539 159.173C33.7539 160.024 34.0792 161.464 35.0251 162.868C35.9711 164.272 37.6276 165.561 40.0775 165.603C40.078 165.603 40.0785 165.603 40.079 165.603C42.1305 165.636 43.6457 164.887 44.5335 163.661C45.4213 162.434 45.7039 160.842 45.7039 159.173C45.7039 159.079 45.6853 158.985 45.6493 158.898C45.6132 158.811 45.5604 158.732 45.4937 158.665C45.4271 158.599 45.3479 158.546 45.2609 158.51C45.1738 158.473 45.0804 158.455 44.9862 158.455C44.8919 158.455 44.7985 158.473 44.7114 158.509C44.6242 158.546 44.5451 158.598 44.4784 158.665C44.4117 158.732 44.3588 158.811 44.3228 158.898C44.2867 158.985 44.2681 159.079 44.2681 159.173C44.2681 160.671 43.988 161.965 43.3706 162.819C42.7532 163.671 41.8209 164.195 40.1027 164.167C38.1251 164.134 36.9727 163.188 36.2165 162.065C35.4604 160.943 35.1903 159.565 35.1903 159.173C35.1903 159.079 35.1717 158.985 35.1357 158.898C35.0996 158.811 35.0467 158.732 34.9801 158.665C34.9134 158.599 34.8343 158.546 34.7472 158.51C34.6601 158.473 34.5668 158.455 34.4725 158.455H34.4719Z" fill="black"/>
<path d="M37.6523 158.472C37.5603 158.452 37.4652 158.449 37.3723 158.465C37.2794 158.482 37.1906 158.516 37.111 158.566C37.0313 158.617 36.9624 158.682 36.9081 158.76C36.8539 158.837 36.8153 158.924 36.7946 159.016C36.7946 159.016 36.535 160.155 36.7928 161.526C37.0507 162.896 37.8888 164.586 39.9222 165.536C40.0077 165.576 40.1001 165.599 40.1943 165.603C40.2885 165.607 40.3825 165.593 40.4711 165.56C40.5597 165.528 40.6411 165.479 40.7106 165.415C40.7802 165.351 40.8365 165.275 40.8763 165.189C40.9568 165.017 40.9655 164.819 40.9005 164.64C40.8355 164.461 40.7021 164.316 40.5296 164.235C38.9308 163.488 38.4033 162.321 38.2037 161.26C38.0041 160.199 38.1954 159.33 38.1954 159.33C38.216 159.238 38.2184 159.143 38.2023 159.05C38.1862 158.957 38.1519 158.868 38.1015 158.789C38.051 158.709 37.9854 158.64 37.9083 158.586C37.8312 158.532 37.7443 158.493 37.6523 158.472Z" fill="black"/>
<mask id="mask12_230_528" style="mask-type:luminance" maskUnits="userSpaceOnUse" x="-211" y="-1707" width="377" height="1989">
<path d="M165.028 281.857L165.028 -1706.97H-210.668L-210.668 281.857H165.028Z" fill="white"/>
</mask>
<g mask="url(#mask12_230_528)">
<path fill-rule="evenodd" clip-rule="evenodd" d="M42.4448 160.234C42.4448 160.389 42.4141 160.543 42.3546 160.687C42.2951 160.831 42.2079 160.961 42.098 161.071C41.988 161.181 41.8575 161.269 41.7138 161.328C41.5702 161.388 41.4162 161.418 41.2607 161.418C41.1052 161.418 40.9512 161.388 40.8076 161.328C40.6639 161.269 40.5334 161.181 40.4235 161.071C40.3135 160.961 40.2263 160.831 40.1668 160.687C40.1073 160.543 40.0767 160.389 40.0767 160.234C40.0767 160.078 40.1073 159.924 40.1668 159.78C40.2263 159.637 40.3135 159.506 40.4235 159.396C40.5334 159.286 40.6639 159.199 40.8076 159.139C40.9512 159.08 41.1052 159.049 41.2607 159.049C41.4162 159.049 41.5702 159.08 41.7138 159.139C41.8575 159.199 41.988 159.286 42.098 159.396C42.2079 159.506 42.2951 159.637 42.3546 159.78C42.4141 159.924 42.4448 160.078 42.4448 160.234Z" fill="black"/>
</g>
<path d="M56.3138 153.357C56.2226 153.333 56.1276 153.327 56.0342 153.34C55.9408 153.353 55.8508 153.384 55.7695 153.432C55.7695 153.432 53.177 154.991 53.4681 158.044C53.485 158.221 53.5666 158.385 53.6973 158.505C53.8279 158.625 53.9984 158.692 54.1758 158.694L66.9736 158.815C67.137 158.817 67.2961 158.763 67.4245 158.661C67.5529 158.56 67.6429 158.418 67.6798 158.259C67.6798 158.259 68.3428 155.551 66.4579 153.678C66.3911 153.612 66.3118 153.559 66.2246 153.523C66.1373 153.488 66.0439 153.469 65.9496 153.47C65.8554 153.47 65.762 153.489 65.675 153.525C65.588 153.561 65.5091 153.615 65.4426 153.681C65.3762 153.748 65.3235 153.828 65.2878 153.915C65.252 154.002 65.2338 154.096 65.2341 154.19C65.2344 154.284 65.2533 154.378 65.2897 154.465C65.3261 154.552 65.3793 154.631 65.4462 154.697C66.2998 155.545 66.3663 156.696 66.3293 157.372L54.9039 157.264C55.0524 155.496 56.4947 154.671 56.4947 154.671C56.576 154.623 56.6472 154.56 56.7042 154.485C56.7611 154.41 56.8028 154.324 56.8266 154.233C56.8505 154.142 56.8562 154.047 56.8433 153.953C56.8305 153.86 56.7994 153.77 56.7517 153.689C56.7041 153.607 56.6409 153.536 56.5658 153.479C56.4907 153.422 56.4051 153.38 56.3139 153.356L56.3138 153.357Z" fill="black"/>
<path d="M59.2728 153.789C59.0827 153.78 58.8968 153.847 58.7559 153.975C58.7559 153.975 56.9843 155.614 57.4291 158.132C57.4455 158.224 57.48 158.313 57.5307 158.393C57.5814 158.472 57.6472 158.541 57.7245 158.595C57.8017 158.649 57.8889 158.687 57.9809 158.708C58.073 158.728 58.1681 158.73 58.261 158.714C58.3538 158.697 58.4425 158.663 58.522 158.612C58.6015 158.561 58.6702 158.495 58.7242 158.418C58.7783 158.341 58.8166 158.254 58.8369 158.162C58.8573 158.069 58.8593 157.974 58.8429 157.881C58.5273 156.096 59.7216 155.038 59.7216 155.038C59.7913 154.974 59.8479 154.898 59.8881 154.812C59.9283 154.727 59.9512 154.635 59.9557 154.54C59.9602 154.446 59.9461 154.352 59.9142 154.263C59.8823 154.175 59.8332 154.093 59.7698 154.023C59.6417 153.882 59.4629 153.798 59.2728 153.789Z" fill="black"/>
<path d="M54.8452 157.265C54.7519 157.252 54.6568 157.257 54.5655 157.28C54.4742 157.304 54.3883 157.345 54.3128 157.401C54.2374 157.458 54.1738 157.528 54.1257 157.61C54.0776 157.691 54.0459 157.781 54.0325 157.874C54.0325 157.874 53.7612 159.668 54.4751 161.549C55.189 163.43 57.0341 165.409 60.7526 165.602C60.7532 165.602 60.7538 165.602 60.7544 165.602C62.4298 165.685 63.7353 165.251 64.668 164.517C65.6008 163.783 66.1445 162.789 66.4603 161.829C67.0918 159.909 66.8638 158.017 66.8638 158.017C66.8533 157.923 66.8244 157.832 66.7789 157.75C66.7333 157.667 66.6719 157.594 66.5982 157.536C66.5245 157.477 66.44 157.433 66.3494 157.407C66.2589 157.381 66.164 157.373 66.0704 157.383C65.9767 157.394 65.886 157.423 65.8034 157.468C65.7209 157.514 65.6481 157.575 65.5893 157.649C65.5305 157.722 65.4868 157.807 65.4606 157.898C65.4345 157.988 65.4264 158.083 65.437 158.177C65.437 158.177 65.6065 159.83 65.0967 161.38C64.8418 162.155 64.4299 162.877 63.7805 163.388C63.1315 163.898 62.2283 164.237 60.8271 164.168C57.5585 163.998 56.3803 162.522 55.8176 161.039C55.255 159.556 55.4538 158.078 55.4538 158.078C55.4809 157.889 55.432 157.698 55.3179 157.545C55.2038 157.393 55.0339 157.292 54.8455 157.265L54.8452 157.265Z" fill="black"/>
<path d="M57.1235 157.292C57.0297 157.282 56.935 157.292 56.8447 157.319C56.7545 157.346 56.6706 157.391 56.5977 157.451C56.5248 157.511 56.4644 157.584 56.42 157.668C56.3755 157.751 56.3479 157.842 56.3387 157.936C56.3387 157.936 56.1969 159.351 56.7233 160.994C57.2497 162.638 58.5057 164.585 61.1393 165.559C61.2277 165.591 61.3217 165.606 61.4159 165.603C61.5101 165.599 61.6027 165.577 61.6883 165.537C61.7739 165.498 61.851 165.442 61.915 165.373C61.979 165.304 62.0288 165.223 62.0614 165.134C62.0941 165.046 62.1091 164.952 62.1054 164.857C62.1018 164.763 62.0796 164.67 62.0402 164.585C62.0007 164.499 61.9448 164.422 61.8756 164.358C61.8065 164.294 61.7253 164.244 61.6369 164.212C59.434 163.397 58.5227 161.905 58.0906 160.556C57.6586 159.207 57.7673 158.076 57.7673 158.076C57.7859 157.887 57.7286 157.698 57.6079 157.551C57.4871 157.403 57.3129 157.31 57.1235 157.292Z" fill="black"/>
<mask id="mask13_230_528" style="mask-type:luminance" maskUnits="userSpaceOnUse" x="-211" y="-1707" width="377" height="1989">
<path d="M165.028 281.857L165.028 -1706.97H-210.668L-210.668 281.857H165.028Z" fill="white"/>
</mask>
<g mask="url(#mask13_230_528)">
<path fill-rule="evenodd" clip-rule="evenodd" d="M63.3229 159.249C63.3229 159.416 63.2899 159.582 63.2257 159.737C63.1616 159.892 63.0677 160.033 62.9492 160.151C62.8308 160.27 62.6901 160.364 62.5353 160.428C62.3806 160.492 62.2147 160.525 62.0472 160.525C61.8796 160.525 61.7138 160.492 61.559 160.428C61.4042 160.364 61.2636 160.27 61.1451 160.151C61.0267 160.033 60.9327 159.892 60.8686 159.737C60.8045 159.582 60.7715 159.416 60.7715 159.249C60.7715 159.081 60.8045 158.915 60.8686 158.76C60.9327 158.606 61.0267 158.465 61.1451 158.346C61.2636 158.228 61.4042 158.134 61.559 158.07C61.7138 158.006 61.8796 157.973 62.0472 157.973C62.2147 157.973 62.3806 158.006 62.5353 158.07C62.6901 158.134 62.8308 158.228 62.9492 158.346C63.0677 158.465 63.1616 158.606 63.2257 158.76C63.2899 158.915 63.3229 159.081 63.3229 159.249Z" fill="black"/>
</g>
<path d="M82.9236 153.686C82.7342 153.667 82.5451 153.724 82.3979 153.845C82.3979 153.845 79.686 156.051 80.2865 159.377C80.3164 159.542 80.4035 159.692 80.5327 159.8C80.6618 159.908 80.8247 159.967 80.993 159.967H92.6911C92.8531 159.967 93.0103 159.912 93.1372 159.812C93.2641 159.711 93.3533 159.57 93.3902 159.413C93.3902 159.413 94.2567 155.794 91.5072 153.914C91.35 153.806 91.1566 153.766 90.9696 153.801C90.7825 153.836 90.617 153.944 90.5096 154.101C90.4022 154.258 90.3616 154.452 90.3968 154.639C90.432 154.826 90.54 154.992 90.6972 155.099C92.0736 156.04 92.1281 157.681 92.0575 158.531H81.6604C81.6053 156.395 83.3082 154.955 83.3082 154.955C83.4554 154.835 83.5487 154.66 83.5674 154.471C83.5862 154.281 83.5289 154.092 83.4082 153.945C83.3484 153.872 83.2749 153.812 83.1917 153.767C83.1086 153.723 83.0175 153.695 82.9236 153.686Z" fill="black"/>
<path d="M86.7694 153.735C86.6761 153.721 86.581 153.726 86.4895 153.749C86.398 153.772 86.3118 153.812 86.236 153.868C86.236 153.868 83.2969 156.01 83.8412 159.364C83.8717 159.552 83.9756 159.72 84.1301 159.831C84.2845 159.943 84.4769 159.988 84.6648 159.958C84.8527 159.927 85.0208 159.823 85.1321 159.669C85.2433 159.514 85.2887 159.322 85.2582 159.134C84.8634 156.7 87.0892 155.023 87.0892 155.023C87.1651 154.967 87.2291 154.897 87.2778 154.816C87.3264 154.735 87.3586 154.646 87.3727 154.552C87.3867 154.459 87.3822 154.364 87.3594 154.272C87.3367 154.181 87.2961 154.095 87.2401 154.019C87.1269 153.866 86.9576 153.764 86.7694 153.735Z" fill="black"/>
<path d="M81.7 158.537C81.5113 158.512 81.3205 158.564 81.1698 158.68C81.0191 158.796 80.9207 158.968 80.8962 159.157C80.8962 159.157 80.727 160.431 81.2054 161.876C81.6838 163.322 82.8914 165.001 85.3848 165.698C85.4755 165.724 85.5705 165.731 85.6641 165.72C85.7576 165.708 85.8481 165.679 85.9302 165.633C86.0124 165.586 86.0846 165.524 86.1428 165.45C86.201 165.376 86.244 165.291 86.2693 165.2C86.3206 165.017 86.2969 164.821 86.2036 164.655C86.1102 164.489 85.9547 164.367 85.7714 164.315C83.7146 163.74 82.9371 162.54 82.568 161.425C82.199 160.31 82.3198 159.341 82.3198 159.341C82.332 159.248 82.3255 159.153 82.3009 159.062C82.2764 158.97 82.2341 158.885 82.1765 158.81C82.119 158.736 82.0473 158.673 81.9655 158.626C81.8838 158.579 81.7936 158.549 81.7 158.537Z" fill="black"/>
<path d="M85.1589 158.536C84.9699 158.513 84.7796 158.566 84.6299 158.684C84.4802 158.802 84.3834 158.974 84.3607 159.163C84.3607 159.163 83.9133 162.632 86.5828 164.49C86.739 164.599 86.9321 164.641 87.1194 164.607C87.3068 164.574 87.4731 164.467 87.5818 164.311C87.6905 164.154 87.7327 163.961 87.6991 163.774C87.6655 163.586 87.5588 163.42 87.4026 163.311C85.5007 161.987 85.7864 159.334 85.7864 159.334C85.809 159.145 85.7556 158.955 85.6379 158.805C85.5202 158.655 85.3479 158.558 85.1589 158.536Z" fill="black"/>
<path d="M92.0096 158.535C91.916 158.547 91.8255 158.576 91.7433 158.622C91.661 158.668 91.5887 158.73 91.5303 158.804C91.472 158.878 91.4288 158.963 91.4032 159.054C91.3776 159.144 91.3702 159.239 91.3813 159.333C91.3813 159.333 91.5391 161.796 90.4982 162.81C90.3618 162.943 90.2838 163.125 90.2813 163.315C90.2788 163.506 90.352 163.689 90.4849 163.826C90.6176 163.962 90.7992 164.04 90.9895 164.043C91.1799 164.045 91.3635 163.972 91.4999 163.839C93.2884 162.096 92.8069 159.164 92.8069 159.164C92.7958 159.071 92.7664 158.98 92.7203 158.898C92.6743 158.816 92.6125 158.743 92.5384 158.685C92.4644 158.627 92.3796 158.583 92.2889 158.558C92.1981 158.532 92.1033 158.525 92.0096 158.536V158.535Z" fill="black"/>
<mask id="mask14_230_528" style="mask-type:luminance" maskUnits="userSpaceOnUse" x="-211" y="-1707" width="377" height="1989">
<path d="M165.028 281.857L165.028 -1706.97H-210.668L-210.668 281.857H165.028Z" fill="white"/>
</mask>
<g mask="url(#mask14_230_528)">
<path fill-rule="evenodd" clip-rule="evenodd" d="M89.6657 160.355C89.6657 160.648 89.5493 160.929 89.3421 161.136C89.1349 161.344 88.8539 161.46 88.5609 161.46C88.2679 161.46 87.9868 161.344 87.7796 161.136C87.5725 160.929 87.4561 160.648 87.4561 160.355C87.4561 160.062 87.5725 159.781 87.7796 159.573C87.9868 159.366 88.2679 159.25 88.5609 159.25C88.8539 159.25 89.1349 159.366 89.3421 159.573C89.5493 159.781 89.6657 160.062 89.6657 160.355Z" fill="black"/>
</g>
<path d="M95.4811 57.7869C95.3873 57.7773 95.2925 57.7863 95.2022 57.8134C95.1119 57.8405 95.0278 57.8851 94.9547 57.9446C94.8816 58.0042 94.821 58.0777 94.7763 58.1607C94.7316 58.2437 94.7037 58.3347 94.6941 58.4285C94.6846 58.5224 94.6936 58.6172 94.7207 58.7076C94.7478 58.7979 94.7924 58.882 94.852 58.9551C94.9115 59.0282 94.9849 59.0889 95.068 59.1336C95.151 59.1783 95.242 59.2062 95.3358 59.2157L107.994 60.5037C108.184 60.5229 108.373 60.4661 108.52 60.3458C108.668 60.2254 108.762 60.0515 108.781 59.8621C108.79 59.7682 108.781 59.6735 108.754 59.5831C108.727 59.4928 108.683 59.4087 108.623 59.3356C108.564 59.2625 108.49 59.2019 108.407 59.1571C108.324 59.1124 108.233 59.0844 108.14 59.0749L95.4811 57.7869Z" fill="black"/>
</g>
<defs>
<clipPath id="clip0_230_528">
<rect width="155" height="169" fill="white"/>
</clipPath>
</defs>
</svg>
