<svg width="25" height="24" viewBox="0 0 25 24" fill="none" xmlns="http://www.w3.org/2000/svg">
<mask id="mask0_2925_490" style="mask-type:alpha" maskUnits="userSpaceOnUse" x="0" y="0" width="25" height="24">
<rect x="0.666748" width="24" height="24" fill="#D9D9D9"/>
</mask>
<g mask="url(#mask0_2925_490)">
<path d="M6.51064 19.5576C5.73011 19.5576 5.06741 19.2847 4.52254 18.7387C3.97767 18.1928 3.70524 17.5299 3.70524 16.75H2.91679C2.66069 16.75 2.44602 16.6633 2.27279 16.4901C2.09956 16.3169 2.01294 16.1022 2.01294 15.8461V6.3077C2.01294 5.80257 2.18794 5.375 2.53794 5.025C2.88794 4.675 3.3155 4.5 3.82061 4.5H15.6283C16.1254 4.5 16.551 4.67701 16.905 5.03103C17.259 5.38503 17.436 5.81058 17.436 6.3077V8.3077H19.186C19.4722 8.3077 19.7433 8.37172 19.9994 8.49975C20.2555 8.6278 20.4664 8.8048 20.6321 9.03075L23.1398 12.3885C23.2001 12.4638 23.2453 12.5467 23.2754 12.6371C23.3055 12.7274 23.3206 12.8254 23.3206 12.9308V15.8461C23.3206 16.1022 23.234 16.3169 23.0607 16.4901C22.8875 16.6633 22.6728 16.75 22.4167 16.75H21.5129C21.5129 17.5299 21.2397 18.1928 20.6933 18.7387C20.147 19.2847 19.4835 19.5576 18.703 19.5576C17.9224 19.5576 17.2597 19.2847 16.7149 18.7387C16.17 18.1928 15.8975 17.5299 15.8975 16.75H9.32059C9.32059 17.532 9.0474 18.1955 8.50101 18.7403C7.95465 19.2852 7.29119 19.5576 6.51064 19.5576ZM6.51291 18.0577C6.87958 18.0577 7.1892 17.9314 7.44176 17.6788C7.69433 17.4263 7.82061 17.1166 7.82061 16.75C7.82061 16.3833 7.69433 16.0737 7.44176 15.8211C7.1892 15.5685 6.87958 15.4423 6.51291 15.4423C6.14623 15.4423 5.83661 15.5685 5.58404 15.8211C5.33147 16.0737 5.20519 16.3833 5.20519 16.75C5.20519 17.1166 5.33147 17.4263 5.58404 17.6788C5.83661 17.9314 6.14623 18.0577 6.51291 18.0577ZM3.51291 15.25H4.23599C4.44879 14.8795 4.75616 14.5689 5.15809 14.3183C5.56002 14.0676 6.01163 13.9423 6.51291 13.9423C7.00138 13.9423 7.44978 14.066 7.85811 14.3135C8.26645 14.5609 8.57702 14.8731 8.78984 15.25H15.936V6.3077C15.936 6.21795 15.9072 6.14423 15.8495 6.08652C15.7918 6.02882 15.718 5.99998 15.6283 5.99998H3.82061C3.7437 5.99998 3.67318 6.03203 3.60906 6.09613C3.54496 6.16024 3.51291 6.23077 3.51291 6.3077V15.25ZM18.7052 18.0577C19.0719 18.0577 19.3815 17.9314 19.6341 17.6788C19.8867 17.4263 20.0129 17.1166 20.0129 16.75C20.0129 16.3833 19.8867 16.0737 19.6341 15.8211C19.3815 15.5685 19.0719 15.4423 18.7052 15.4423C18.3386 15.4423 18.0289 15.5685 17.7764 15.8211C17.5238 16.0737 17.3975 16.3833 17.3975 16.75C17.3975 17.1166 17.5238 17.4263 17.7764 17.6788C18.0289 17.9314 18.3386 18.0577 18.7052 18.0577ZM17.436 13.25H21.9168L19.4167 9.93265C19.3847 9.8942 19.3478 9.86375 19.3062 9.8413C19.2645 9.81887 19.218 9.80765 19.1667 9.80765H17.436V13.25Z" fill="#76889A"/>
</g>
</svg>
